<svg width="56" height="56" viewBox="0 0 56 56" fill="none" xmlns="http://www.w3.org/2000/svg"><path d="M23.083 34.667c.427.429 1.54 1.646 1.997 1.848.143.064.313.067.468.066.158 0 .334-.007.475-.084.485-.263 1.27-1.142 1.681-1.554l2.172-2.17c.055-.055.238-.26.316-.232l6.358 10.665 1.597 2.67c.263.44.585.89.785 1.36.112.268.122.65.052.928a.96.96 0 0 1-.464.623c-.137.081-.296.129-.428.213H7.962c-.074-.051-.17-.082-.25-.125a1.3 1.3 0 0 1-.657-.74c.011-.021.024-.043.026-.069.007-.08-.014-.183-.013-.268.001-.157.026-.31.017-.467.177-.508.636-1.144.928-1.614.374-.602.732-1.215 1.096-1.823l4.662-7.74 1.52-2.538c.21-.353.44-.694.631-1.059.013-.024.01-.016.034-.039.188.066.523.466.68.623l2.048 2.052c.35.351.693.736 1.07 1.057.133.112.29.22.45.29.203.087.68.056.878-.038.62-.294 1.409-1.37 2-1.835" fill="#667F99"/><path d="M22.8 7h12.83c.116.047.234.1.343.16.25.135.467.356.543.636.07.254.073.623-.001.878-.075.259-.217.504-.338.743l-.477.95-.873 1.745c-.173.345-.338.698-.532 1.032.15.372.362.738.542 1.098l1.114 2.224c.173.346.378.7.513 1.062.054.143.094.296.099.45.01.374-.03.68-.304.96-.136.14-.32.267-.514.3-.441.075-.922.042-1.37.042h-2.1l-7.985.004c-.046.696-.019 1.405-.02 2.102-.002.377-.04.783-.01 1.157a.4.4 0 0 0 .034.13l.015.032c.125.269.294.521.447.775l.754 1.258 2.452 4.087c.167.278.812 1.255.855 1.505-.128.21-.36.399-.535.574l-.876.877-1.17 1.17c-.224.224-.443.463-.684.667-.156-.098-.287-.25-.418-.382l-.64-.642c-.324-.327-.72-.81-1.209-.86-.178-.017-.424-.023-.593.035-.593.203-1.497 1.373-2.04 1.831l-.022.018c-.269-.17-.708-.674-.951-.918-.787-.789-1.56-1.611-2.381-2.365-.006-.114 3.186-5.371 3.513-5.916.21-.35 1.023-1.59 1.06-1.891.032-.264 0-.56-.002-.827V9.53c0-.488-.015-.983.01-1.47a1 1 0 0 1 .09-.412c.167-.322.492-.54.83-.648" fill="#36C99F"/><path d="M41.314 49c.023-.249.095-.486.14-.73.074-.394.078-.902-.018-1.29-.21-.849-.77-1.674-1.218-2.424l-1.162-1.938-3.33-5.598-.985-1.65c-.188-.311-.39-.619-.563-.937-.035-.064-.075-.136-.075-.21a.56.56 0 0 1 .088-.255c.086-.158.2-.301.29-.457.372-.642.756-1.278 1.138-1.915l.775-1.292c.157-.261.323-.619.54-.83.214-.21.612-.343.909-.342.286.001.636.11.843.311-.004.045-.011.043.015.083.087.134.153.286.231.426.214.383.43.77.665 1.139.02.03.02.06.024.095.023.17.206.257.27.452s.203.342.304.518l.62 1.093c.055.099.094.209.15.306.078.133.185.25.26.385.033.06.03.128.06.187.041.088.133.18.184.27.058.1.096.207.153.306.049.084.11.162.162.244.143.23.278.48.408.719.105.191.148.365.3.53.095.102.101.238.17.353.073.118.159.229.23.348.062.103.106.217.167.32.39.67.795 1.343 1.164 2.026.044.083.077.172.123.255.062.113.159.204.223.316.073.126.1.278.173.405.064.112.156.207.222.318.155.261.282.547.431.81.077.136.19.255.263.393.019.034.024.07.032.108.03.157.212.31.291.454.034.062.03.133.06.194.058.117.165.229.232.348l.646 1.139c.052.093.088.196.142.289.065.11.161.2.223.313.069.127.098.276.172.401.063.108.152.2.215.309.046.08.077.167.122.247l.68 1.204c.075.133.2.265.26.4.055.127.026.278.077.406l.066-.013c.047.045.05.137.05.198.004.245-.165.56-.306.756-.073.103-.166.192-.2.317-.125.062-.279.11-.392.19z" fill="#667F99"/><path d="M38.686 29.444c.075.061.14.127.192.21.32.517.606 1.062.904 1.593l1.344 2.358 4.383 7.708 2.272 3.993.552.97c.243.422.503.84.667 1.301v.434c-.164.323-.25.6-.58.8.033-.125.126-.214.2-.317.14-.197.31-.512.306-.757 0-.06-.004-.153-.05-.197l-.066.013c-.051-.129-.023-.28-.078-.406-.059-.136-.184-.268-.26-.4l-.68-1.204c-.044-.08-.075-.168-.122-.248-.062-.108-.15-.2-.215-.308-.073-.125-.102-.274-.172-.401-.061-.114-.157-.203-.222-.314-.054-.092-.09-.195-.142-.289l-.646-1.139c-.067-.119-.174-.23-.232-.348-.03-.06-.026-.132-.06-.193-.08-.145-.26-.298-.292-.454-.007-.038-.013-.075-.031-.109-.074-.138-.186-.256-.263-.392-.15-.264-.276-.55-.431-.81-.066-.111-.159-.206-.223-.318-.072-.127-.099-.28-.172-.406-.064-.111-.162-.203-.224-.316-.045-.082-.078-.171-.123-.254-.368-.683-.773-1.356-1.164-2.026-.06-.104-.105-.217-.166-.32-.072-.12-.157-.23-.23-.349-.07-.115-.075-.25-.17-.353-.153-.164-.195-.338-.3-.53-.13-.238-.265-.49-.409-.718-.051-.083-.113-.16-.161-.245-.057-.098-.096-.206-.153-.305-.052-.09-.143-.182-.185-.27-.029-.06-.026-.128-.06-.187-.074-.136-.181-.253-.26-.386-.055-.096-.095-.207-.15-.306l-.619-1.093c-.1-.176-.24-.322-.304-.517-.064-.196-.247-.282-.27-.453-.005-.035-.004-.064-.024-.095a22 22 0 0 1-.665-1.138c-.078-.14-.144-.293-.232-.427-.026-.04-.018-.037-.014-.082M7 47.512c.038-.055.06-.118.086-.18.01.157-.016.31-.017.467-.001.085.02.187.013.268-.002.025-.015.047-.026.07L7 48.038z" fill="#667F99"/></svg>