<svg width="154" height="220" viewBox="0 0 154 220" fill="none" xmlns="http://www.w3.org/2000/svg">
<path d="M61.2782 97.3709C49.7206 96.8459 37.6802 94.4766 27.2528 89.4188C26.2813 88.9474 24.9553 88.2242 24.6193 87.1152C24.2111 85.7682 25.9794 84.8566 26.8411 84.1362C27.3107 83.7437 27.7206 83.2767 28.1144 82.8097C36.2146 73.2 33.4545 51.2567 35.2476 38.7366C36.0673 32.6582 37.9923 26.7807 40.9273 21.3949C45.3368 13.3124 52.6651 5.79393 61.703 3.14964C64.7858 2.2477 67.0442 2.41639 69.9477 1.85013C71.9158 1.46634 73.7979 0.771019 75.7888 0.434397C82.9488 -0.755478 90.3007 0.515911 96.6448 4.04138C102.008 6.97965 106.47 11.2363 110.005 16.1969C120.043 30.2824 119.074 44.6403 120.693 60.922C121.081 64.8212 121.467 68.7373 122.454 72.5405C123.143 75.1991 124.028 78.3214 125.595 80.6157C126.169 81.4553 126.868 82.2805 127.621 82.965C128.651 83.9019 131.034 85.0899 131.424 86.4229C131.369 86.9473 131.237 87.3364 130.883 87.7381C129.992 88.7472 128.377 89.291 127.185 89.8639C117.34 94.5917 103.628 96.8571 92.7116 97.1835C92.7078 98.5809 92.6331 100.026 92.7963 101.414C93.9164 101.801 95.0596 99.9725 96.4392 100.185C97.2605 100.311 98.1906 101.658 98.7442 102.292C99.9527 103.677 101.178 104.997 102.525 106.251C103.702 107.347 105.342 108.465 106.246 109.773C113.794 112.38 122.198 115.696 128.252 120.982C131.054 123.428 133.129 126.318 134.482 129.784C137.103 136.5 138.04 144.047 139.02 151.155C139.776 156.689 140.502 162.227 141.199 167.769C142.346 176.796 143.813 185.875 144.421 194.955C144.873 201.705 144.971 209.122 140.204 214.496C137.141 217.949 132.604 219.577 128.089 219.864C126.087 219.99 122.14 219.756 120.617 218.407C120.202 218.705 120.005 218.709 119.499 218.739C117.615 218.855 115.66 218.732 113.769 218.732L101.5 218.738L63.1825 218.743H42.7769C40.8803 218.743 36.2992 218.979 34.6549 218.696C34.4715 218.666 34.2834 218.596 34.1194 218.511C33.8722 218.717 33.6281 218.843 33.3273 218.958C28.9899 220.607 23.7719 220.23 19.5813 218.309C15.6567 216.5 12.6277 213.184 11.1797 209.113C10.1398 206.265 9.88264 203.186 9.90132 200.176C9.95944 190.774 11.6803 181.247 12.8477 171.926L14.8852 155.553C15.9339 147.159 17.0198 136.087 20.5526 128.444C25.3786 118.004 37.4394 113.571 47.552 109.852L47.6001 109.787C47.6273 109.751 47.6556 109.717 47.6822 109.681C48.7708 108.191 51.1228 106.558 52.5076 105.19C54.1399 103.578 55.4728 101.661 57.2727 100.231C58.1605 100.162 58.8326 100.605 59.5698 101.031C60.1429 101.363 60.6355 101.313 61.2769 101.289L61.2782 97.3709Z" fill="#32271E"/>
<path d="M79.4485 160.076C80.6205 161.106 84.1911 161.389 85.8396 162.112C86.087 162.219 86.3285 162.306 86.4316 162.563C86.1732 162.821 85.2109 162.833 84.839 162.884C83.7339 163.035 82.5223 163.399 81.8441 164.361C81.2879 165.15 81.3864 166.189 81.5832 167.082L81.6183 167.239C80.9631 167.888 80.3403 168.537 79.9493 169.384C79.3372 170.712 79.6125 171.984 80.1014 173.299C79.568 174.175 79.2182 175.046 78.8864 176.011C78.6515 176.143 76.2938 175.952 75.3815 176.341C74.2981 176.801 73.2669 178.05 72.8542 179.133C72.427 180.251 72.4719 181.494 72.9786 182.579C73.4688 183.641 74.3941 184.579 75.5057 184.983C76.3431 185.287 77.4715 185.309 78.2841 184.93C78.5377 185.839 78.8417 186.672 79.3231 187.485C79.0078 188.158 78.7017 188.845 78.6102 189.591C78.4838 190.621 78.6798 191.698 79.3317 192.529C79.8997 193.259 80.7473 193.721 81.67 193.8C82.4768 193.864 83.6129 193.644 84.2311 193.102C86.3865 196.057 96.2064 200.184 99.8047 201.189C101.624 201.697 103.611 201.803 105.389 202.376C106.245 202.65 106.896 203.508 107.759 203.697C107.413 204.559 106.491 205.165 106.336 206.109C106.292 206.376 106.33 206.641 106.495 206.861C107.63 208.377 116.537 215.898 118.468 217.281C119.093 217.728 119.842 218.3 120.616 218.407C120.202 218.705 120.005 218.709 119.499 218.739C117.615 218.854 115.66 218.732 113.768 218.732L101.5 218.737L63.1822 218.743H42.7766C40.8801 218.743 36.2989 218.979 34.6546 218.696C34.4712 218.666 34.2831 218.596 34.1191 218.511C34.7756 218.585 36.0525 217.736 36.5897 217.385C38.165 216.332 39.5998 215.084 40.8597 213.671C42.7522 211.511 59.2473 189.538 59.2852 188.609C59.3445 187.158 56.6141 185.956 55.8724 184.792C55.8541 184.764 55.8375 184.734 55.8201 184.705C56.225 184.411 56.4579 183.715 56.6619 183.268C56.803 183.292 56.7998 183.3 56.9681 183.283C59.0742 183.085 62.1323 180.358 63.4215 178.786C64.774 179.128 66.161 179.079 67.4736 178.592C69.0501 178.009 70.4347 176.798 71.1239 175.254C71.1645 175.265 71.2049 175.279 71.2458 175.288C71.8713 175.441 73.0169 175.088 73.5546 174.773C74.9525 173.948 75.6427 172.458 76.0465 170.958C76.3278 171.037 76.6586 170.929 76.9252 170.827C78.2017 170.341 79.2948 169.15 79.8586 167.929C81.0826 165.28 80.3769 162.668 79.4485 160.076Z" fill="#778EEE"/>
<path d="M47.8389 113.02C47.9721 113.007 48.078 113.048 48.2059 113.082C48.8586 113.98 49.275 115.254 49.7628 116.267C52.0876 121.094 51.7199 120.087 51.6346 125.267C51.5752 128.877 52.1163 136.217 54.784 138.908C55.6901 139.822 56.4258 139.913 57.673 139.912C58.1381 140.804 58.6212 141.677 59.1739 142.518C60.2215 144.112 63.3524 147.869 65.094 148.397C65.925 148.649 66.8428 148.342 67.6368 148.561C67.9115 148.637 67.9238 148.723 68.0464 148.957C67.8096 149.46 65.7406 150.372 65.1527 150.741C63.4613 151.801 61.8212 152.988 60.2532 154.223C56.9941 156.787 53.9047 159.748 51.1127 162.812C49.7556 164.297 48.4205 165.803 47.1074 167.327C46.1867 168.409 43.5689 172.069 42.6809 172.611C42.0673 172.462 41.681 171.764 41.1337 171.464C39.2883 170.456 36.9831 174.996 35.2901 175.492C35.2392 172.905 35.3439 170.309 35.3592 167.718L35.4269 153.213C35.4562 150.25 35.6613 147.191 35.4905 144.237C35.466 143.815 35.4443 143.264 35.1731 142.92C34.9111 142.589 34.5416 142.392 34.1184 142.363C33.7548 142.338 33.3776 142.449 33.1068 142.699C32.6934 143.08 32.5777 143.757 32.5351 144.296C32.4475 145.402 32.5436 146.542 32.5277 147.653C32.4755 150.604 32.4498 153.556 32.4504 156.508L32.2337 178.509C31.7664 179.477 30.477 180.466 29.6978 181.219L22.4642 188.159C21.2411 189.325 19.5825 190.6 18.6441 191.98C18.3975 192.342 18.2773 192.751 18.3855 193.185C18.4807 193.568 18.7379 193.87 19.0762 194.065C19.3914 194.244 19.8008 194.316 20.1542 194.21C20.5199 194.101 20.8603 193.81 21.1422 193.561C23.5048 191.476 25.6962 189.119 27.9635 186.925C29.3938 185.54 33.1004 182.413 34.0518 180.9C34.6256 180.707 39.9091 175.503 40.3989 174.683C40.8738 175.594 54.8255 188.304 55.7995 188.68C54.9217 190.597 51.0778 195.331 49.5845 197.342L43.0579 206.16C41.4757 208.288 39.9208 210.518 38.0559 212.411C36.6036 213.885 34.9158 215.124 32.9928 215.911C29.2355 217.449 24.8671 217.27 21.1545 215.698C17.9617 214.358 15.4549 211.771 14.215 208.539C13.1839 205.922 12.8887 202.88 12.9157 200.082C12.9993 191.429 14.6634 182.179 15.7397 173.573L18.1243 154.517C19.1015 146.934 20.0823 137.027 23.1682 130.074C27.4303 120.469 38.7148 116.538 47.8389 113.02Z" fill="#778EEE"/>
<path d="M67.9923 20.9902C68.3317 21.2697 69.8537 26.1364 70.4017 27.187C72.3289 30.9011 75.1019 34.1107 78.4972 36.5573C83.2048 39.9375 88.6319 41.4776 94.3809 40.5292C97.5593 42.9073 100.805 45.1108 104.399 46.8197C104.7 48.6051 105.003 50.5171 105.547 52.2415C106.534 55.3687 108.959 52.4951 111.033 53.6824C112.026 54.2501 112.471 55.4864 112.732 56.5352C113.41 59.2619 113.039 62.6077 111.538 65.0141C110.791 66.213 109.254 67.6348 107.707 67.4474C106.945 67.355 105.942 66.8729 105.197 67.0978C104.843 67.2046 104.581 67.5063 104.419 67.8261C103.904 68.8407 103.738 70.2325 103.431 71.3361C102.994 72.907 102.418 74.3742 101.724 75.8488C98.3737 82.9656 92.2681 88.8986 84.8321 91.5759C81.801 92.7293 78.2808 93.1094 75.061 92.855C63.9453 91.9767 54.8997 83.6979 50.9642 73.6074C50.5432 72.5279 49.4073 67.932 48.8928 67.4189C48.115 66.6432 46.6602 67.3263 45.6922 67.3603C44.8024 67.3916 43.9467 66.9808 43.3029 66.3883C41.6033 64.8246 40.865 62.0307 40.7782 59.8019C40.7088 58.0226 41.0414 55.399 42.3279 54.0488C43.8453 52.4566 45.1847 53.7867 46.868 53.6352C47.9254 53.5403 48.6505 51.0983 49.0017 50.2416C53.5585 39.1263 59.689 29.6724 67.9923 20.9902Z" fill="#FECFAA"/>
<path d="M64.2028 71.7199C68.301 71.5761 72.4276 71.6676 76.5289 71.6653C79.3097 71.6638 86.8561 71.293 89.1793 72.0852C89.3908 72.3269 89.4685 72.5118 89.5006 72.8354C89.7563 75.4138 86.631 80.4513 84.9369 82.405C84.4016 82.9578 83.8544 83.4729 83.2312 83.9267C80.8275 85.7 77.8107 86.4305 74.8619 85.9533C71.487 85.3795 68.5485 83.361 66.6022 80.5758C65.4569 78.9372 63.0309 74.4683 63.4581 72.5505C63.5526 72.1257 63.8571 71.9418 64.2028 71.7199Z" fill="#32271E"/>
<path d="M66.2695 74.1101C73.0786 73.9436 79.9238 74.0889 86.7369 74.0895C86.0202 76.4674 85.1219 78.6024 83.448 80.4902C82.304 81.6723 80.9175 82.6149 79.3523 83.14C77.0948 83.897 74.7215 83.676 72.6091 82.5899C69.2484 80.8617 67.3779 77.5912 66.2695 74.1101Z" fill="#FE997F"/>
<path d="M63.0401 53.0178C63.419 53.024 63.8926 53.0806 64.2487 53.2182C65.0598 53.5318 65.6725 54.1416 66.0221 54.9315C66.4956 56.0014 66.5012 57.3469 66.0778 58.4324C65.6587 59.5068 65.0106 60.0769 63.9773 60.5412C63.5633 60.5459 63.1288 60.5218 62.7439 60.3567C61.8825 59.987 61.2392 59.2025 60.9066 58.342C60.483 57.2467 60.479 55.9721 60.9594 54.8949C61.3987 53.9101 62.05 53.3999 63.0401 53.0178Z" fill="#32271E"/>
<path d="M89.8071 53.0443C90.1258 53.0867 90.4662 53.1239 90.7668 53.2428C91.4889 53.5283 92.0493 54.1828 92.3318 54.8946C92.7695 55.9978 92.7248 57.406 92.2559 58.4916C91.7763 59.602 91.0985 60.1575 89.986 60.5947C89.5433 60.5481 89.0842 60.4447 88.6982 60.2143C87.8642 59.7163 87.3243 58.7676 87.1122 57.8421C86.8466 56.6833 86.9656 55.4003 87.6253 54.3917C88.1647 53.5671 88.8746 53.2503 89.8071 53.0443Z" fill="#32271E"/>
<path d="M88.7992 41.7192C90.0712 41.6013 91.3511 41.6196 92.5894 41.9585C94.0999 42.3719 95.9981 43.3752 96.7591 44.8154C97.0193 45.3073 97.0687 45.7191 96.9082 46.248C96.6657 46.5248 96.5502 46.6661 96.1583 46.7153C95.2196 46.8333 94.4214 46.054 93.7512 45.5092C89.2974 42.7812 88.2007 45.6555 85.6436 45.0951C85.3172 44.9026 85.1298 44.679 85.0287 44.3058C84.9545 44.032 85.0109 43.7388 85.1581 43.4993C85.827 42.41 87.6496 41.9713 88.7992 41.7192Z" fill="#32271E"/>
<path d="M61.4649 41.7217C62.4727 41.6281 63.8161 41.5454 64.7958 41.7881C65.9128 42.0649 67.5209 42.7115 68.0652 43.819C68.2437 44.1822 68.1973 44.3386 68.0877 44.6986C67.8248 44.9922 67.3429 45.2675 66.9416 45.2881C66.157 45.3283 64.4633 44.5324 63.5554 44.3775C62.8832 44.2628 62.1764 44.3446 61.5026 44.4065C59.8654 44.8145 59.0027 46.1936 57.6103 46.6067C57.1616 46.7397 56.7975 46.7121 56.385 46.5006C56.2893 46.3742 56.1448 46.2351 56.1121 46.0798C55.9942 45.5166 56.1621 45.0594 56.4669 44.5879C57.5292 42.9446 59.6399 42.1164 61.4649 41.7217Z" fill="#32271E"/>
<path d="M76.0288 62.3397C76.4958 62.4163 76.8702 62.4916 77.2442 62.7978C77.4648 63.3978 77.093 63.9294 77.1674 64.5449C77.2247 65.02 77.6184 65.3259 77.634 65.8278C77.4542 66.2882 77.1113 66.4972 76.7275 66.7746C76.6475 66.7661 76.5675 66.7576 76.4881 66.7454C75.9007 66.655 75.3879 66.3374 75.0537 65.8417C74.6967 65.3119 74.6218 64.6709 74.7495 64.0539C74.9178 63.241 75.3677 62.777 76.0288 62.3397Z" fill="#32271E"/>
<path d="M105.674 112.776C113.832 115.888 125.326 119.905 130.093 127.649C132.054 130.833 133.02 134.694 133.829 138.304C135.896 147.523 136.845 157.831 138.068 167.248C139.379 177.347 141.121 187.759 141.526 197.921C141.647 200.971 141.678 204.135 140.937 207.118C140.13 210.369 138.212 212.967 135.335 214.692C132.159 216.596 127.387 217.532 123.749 216.605C122.594 216.311 121.62 215.841 120.622 215.192C119.013 214.145 110.543 207.144 109.788 205.854C110.291 205.605 121.481 190.128 122.442 188.468C123.12 189.232 135.442 197.708 136.105 197.882C136.474 197.978 136.828 197.919 137.148 197.714C137.489 197.493 137.819 197.118 137.866 196.699C138.078 194.8 133.247 193.051 132.194 191.676C132.177 191.653 132.162 191.632 132.147 191.61C131.276 191.406 123.334 185.87 122.728 185.09C122.716 175.864 122.616 166.637 122.426 157.412L122.265 148.516C122.244 147.234 122.329 145.909 122.225 144.633C122.179 144.08 122.047 143.516 121.754 143.038C121.549 142.704 121.149 142.282 120.733 142.238C120.378 142.201 120.09 142.321 119.835 142.563C119.408 142.968 119.23 143.661 119.184 144.232C119.088 145.412 119.244 146.664 119.27 147.851L119.414 155.683C119.582 165.191 119.895 174.741 119.75 184.249C119.609 184.136 119.536 184.038 119.452 183.877C118.266 181.607 117.815 176.216 116.966 173.377C116.046 170.293 114.86 167.09 113.607 164.123C113.075 162.867 112.435 161.657 111.923 160.395C112.49 159.542 113.409 154.951 113.77 153.616C114.178 152.108 114.579 150.51 113.722 149.074C113.218 148.23 112.397 147.731 111.453 147.516C110.381 147.271 94.6718 147.781 92.7304 148.036C92.0532 148.125 91.3682 148.302 90.7899 148.676C89.167 149.727 88.9054 151.7 88.5135 153.436C87.2559 152.822 85.9859 152.232 84.7207 151.633C85.01 150.918 85.3602 150.153 85.7898 149.512C86.7031 148.15 86.9272 148.842 88.216 148.524C88.7254 148.399 89.233 147.931 89.6478 147.613C92.3581 145.535 94.1597 142.919 95.7821 139.95C96.9355 139.913 97.5508 139.642 98.3388 138.799C101.977 134.908 101.931 125.824 101.749 120.819C103.236 118.249 104.496 115.5 105.674 112.776Z" fill="#778EEE"/>
<path d="M110.857 164.895C111.464 166.027 111.859 167.376 112.293 168.586C113.363 171.565 114.393 174.477 115.05 177.579C115.598 180.162 115.954 182.949 116.939 185.409C117.306 186.325 118.176 187.702 119.104 188.102C118.76 188.925 110.022 201.074 109.437 201.469C109.399 201.465 109.36 201.463 109.322 201.456C108.314 201.212 107.399 200.023 106.322 199.697C104.389 199.112 102.301 198.931 100.34 198.371C93.851 196.518 86.3091 192.699 82.2493 187.104C81.536 186.121 80.8305 184.911 81.0249 183.657C81.7349 184.009 82.6635 185.464 83.2773 186.094C85.2096 188.081 88.2117 190.766 90.7509 191.866C91.1943 192.059 91.6239 192.204 92.0908 191.987C92.4683 191.81 92.7417 191.465 92.8493 191.064C92.9667 190.629 92.807 190.191 92.497 189.874C91.8406 189.204 90.7077 188.672 89.9163 188.127C87.3509 186.359 84.5596 184.104 82.8688 181.455C81.9004 179.937 81.1528 178.034 81.5413 176.217L81.6996 176.137C82.8446 177.462 86.0648 181.834 87.6966 182.402C87.7434 182.419 87.7911 182.432 87.8383 182.447C88.8361 183.817 92.6938 186.194 94.2694 186.968C95.0926 187.372 95.7915 187.604 96.7038 187.291C96.8031 187.177 96.9767 187.038 96.9988 186.889C97.1088 186.153 96.6508 185.491 96.14 185.004C95.2258 184.132 93.8014 183.536 92.7336 182.815C89.3299 180.515 86.0546 177.726 83.6777 174.345C83.0908 173.511 82.03 171.884 82.2857 170.824C82.3768 170.445 82.5484 170.041 82.872 169.835C83.723 170.471 84.2586 171.505 84.9934 172.275C86.7056 174.039 88.5615 175.656 90.5422 177.113C92.1108 178.275 98.172 182.57 99.9461 182.155C100.295 182.073 100.397 181.907 100.581 181.636C100.632 181.343 100.657 181.083 100.573 180.792C100.27 179.739 99.4621 179.366 98.5853 178.905C93.7978 176.396 89.0659 173.124 85.6391 168.89C85.1074 168.233 84.356 167.346 84.1511 166.51C84.0651 166.161 84.1281 166.02 84.2975 165.716C84.8611 165.484 85.3183 165.733 85.8359 165.986C88.4691 167.271 90.8233 169.097 93.3327 170.605C96.8642 172.73 100.577 174.265 104.45 175.63C105.423 175.973 106.845 176.688 107.865 176.726C108.42 176.745 108.776 176.645 109.181 176.264C109.298 176.035 109.365 175.879 109.348 175.616C109.32 175.164 109.194 174.901 108.857 174.596C108.7 174.454 108.56 174.341 108.448 174.156C108.421 174.111 108.395 174.064 108.368 174.016C109.328 171.024 109.797 167.856 110.857 164.895Z" fill="#FECFAA"/>
<path d="M72.4907 150.858C75.5497 150.791 84.6942 154.734 87.7957 156.223C87.5617 157.236 87.3758 158.299 86.9966 159.269C86.3803 159.45 78.3876 157.138 76.8624 156.882C75.8533 155.906 74.7601 154.689 73.5134 154.031C73.1428 153.834 72.7009 153.665 72.2858 153.817C71.8999 153.961 71.7314 154.195 71.5542 154.549C71.5407 154.855 71.5042 155.019 71.6603 155.302C72.7032 157.189 75.468 158.929 76.7838 161.071C77.6278 162.444 78.048 164.384 77.6466 165.969C77.4515 166.741 77.0668 167.486 76.3686 167.907C76.3173 167.829 76.336 167.865 76.2986 167.769C75.862 166.654 75.4027 165.733 74.6959 164.752C73.67 163.325 71.1867 160.131 69.3962 159.912C68.9501 159.857 68.6067 159.942 68.2522 160.208C67.4859 162.322 73.8596 165.716 73.7802 169.296C73.7621 170.109 73.3204 171.635 72.6669 172.173C72.3605 172.426 72.1926 172.405 71.8293 172.367C71.2916 172.018 70.9142 170.133 70.5417 169.486C69.6179 167.88 67.832 166.978 66.7489 165.537C66.5657 165.512 66.6347 165.533 66.4683 165.467C65.853 165.222 65.3145 164.959 64.6352 165.144C64.232 165.256 64.1625 165.378 63.9855 165.722C64.0336 167.42 67.652 169.705 68.6245 171.445C69.0032 172.107 69.0964 172.896 68.8826 173.628C68.6129 174.581 67.8112 175.343 66.95 175.779C66.3506 176.083 65.5611 176.366 64.8995 176.151C64.5716 175.696 64.9886 174.364 64.7326 173.656C64.5135 173.428 64.3976 173.258 64.0442 173.269C63.6448 173.284 63.1279 173.447 62.8596 173.758C61.842 174.937 62.0537 176.481 60.4504 178.017C58.6173 179.775 56.4193 179.923 54.8428 181.24C54.3669 181.636 54.0548 182.308 53.6472 182.785C53.6006 182.777 53.5537 182.772 53.5072 182.762C52.8491 182.626 45.0738 175.396 44.627 174.624C45.2347 174.407 47.3028 171.516 47.8884 170.799C52.6523 164.969 64.7218 151.646 72.4907 150.858Z" fill="#FECFAA"/>
<path d="M64.3962 93.0177C65.5753 93.5985 66.7894 94.1057 68.0311 94.5363C75.3364 97.0357 82.7334 96.2736 89.6017 92.8909C89.6049 95.2744 89.2753 102.452 89.844 104.193C89.8546 104.226 89.9115 104.387 89.9148 104.429C89.968 105.109 85.604 108.877 84.8167 109.618L77.0076 116.999C72.9372 113.268 68.6863 109.601 64.7851 105.699C64.5887 105.503 63.9134 104.895 63.8843 104.63C63.8303 104.141 64.427 103.192 64.4608 102.58C64.5074 101.734 64.3989 100.834 64.3968 99.9783L64.3962 93.0177Z" fill="#FECFAA"/>
<path d="M55.6608 117.873C60.5125 117.588 66.9299 119.344 70.9648 122.059C70.7142 124.712 70.5982 127.362 70.8774 130.018C69.487 131.303 67.969 132.382 66.4029 133.44C63.5093 135.32 60.4276 136.561 57.0118 137.065C56.8274 136.765 56.6559 136.458 56.4974 136.144C54.4079 132.025 54.4688 126.275 54.7073 121.792C54.7654 120.698 54.7564 119.33 55.1366 118.309C55.2477 118.011 55.3943 118.001 55.6608 117.873Z" fill="#36C99F"/>
<path d="M96.7477 117.892L98.2429 118.058C98.4878 119.014 98.5965 120.068 98.6921 121.051C99.181 126.06 99.1086 133.077 95.751 137.151C92.8762 136.732 90.3428 135.505 87.8351 134.098C85.9009 133.001 84.1632 131.614 82.5039 130.144C82.8134 127.536 82.6458 124.887 82.5073 122.272C86.8364 119.423 91.5965 118.148 96.7477 117.892Z" fill="#36C99F"/>
<path d="M95.7579 103.536C98.2432 106.037 100.46 108.574 103.198 110.842C102.403 112.732 101.48 114.588 100.626 116.453C100.211 116 99.7802 115.584 99.2074 115.342C95.8942 113.938 88.5585 116.206 85.3278 117.478C83.6337 118.191 82.0834 119.076 80.5996 120.156C79.9601 119.995 79.2888 119.941 78.6348 119.861C83.9547 114.095 89.9431 108.799 95.7579 103.536Z" fill="#FEFEFE"/>
<path d="M57.9902 103.634C63.9073 108.876 69.7027 114.253 75.3724 119.761L73.2306 120.104C71.9809 119.188 70.6788 118.474 69.2713 117.832C65.6415 116.158 61.2281 115.077 57.2326 114.899C55.5315 114.823 54.2141 115.036 52.9333 116.198C52.2191 114.457 51.366 112.774 50.543 111.082C53.2288 108.902 55.8195 106.326 57.9902 103.634Z" fill="#FEFEFE"/>
<path d="M76.6311 135.584C77.3725 136.221 78.4093 138.909 79.0077 139.92C80.4274 142.32 82.2865 144.445 84.1372 146.515C83.1137 147.735 82.3176 148.989 81.7506 150.484C80.5964 150.225 79.4443 149.772 78.3214 149.396C75.8096 148.515 73.5296 147.852 70.8225 148.122L69.8164 146.268C72.8152 143.073 74.8295 139.546 76.6311 135.584Z" fill="#FEFEFE"/>
<path d="M72.8748 132.223C73.5856 132.25 74.3513 132.454 75.0549 132.577C72.968 137.37 70.3141 142.306 66.2104 145.679C65.5561 145.281 64.9625 144.777 64.3615 144.303C62.8116 142.831 61.6617 141.204 60.582 139.372C65.3128 137.791 69.1504 135.541 72.8748 132.223Z" fill="#36C99F"/>
<path d="M79.6611 132.296L79.7764 132.288C80.6851 132.226 81.8183 133.55 82.5099 134.137C85.5208 136.693 89.0561 138.237 92.7267 139.575C91.9138 140.981 91.0022 142.216 89.9412 143.443C89.1582 144.253 88.3472 144.978 87.4747 145.69C84.1228 142.559 81.5598 139.158 79.5886 135.011C79.228 134.252 78.7471 133.427 78.5742 132.608C78.8089 132.367 79.3254 132.358 79.6611 132.296Z" fill="#36C99F"/>
<path d="M75.744 122.693C77.1267 122.596 78.3511 122.739 79.7005 123.002C79.7516 125.085 79.789 127.158 79.734 129.242C79.1774 129.384 78.6057 129.461 78.0389 129.552C76.4858 129.69 75.153 129.581 73.6328 129.301C73.6158 127.203 73.636 125.106 73.6932 123.009C74.369 122.862 75.0591 122.784 75.744 122.693Z" fill="#36C99F"/>
<path d="M76.7627 178.554C77.3039 178.713 77.8118 178.584 78.299 178.95C78.7102 179.258 79.0902 179.724 79.15 180.25C79.2044 180.73 78.9917 181.186 78.6894 181.547C78.4019 181.89 78.1588 182.06 77.7241 182.113C77.4333 182.315 77.2124 182.415 76.8508 182.415C76.4255 182.417 76.0527 182.328 75.7538 182.009C75.374 181.603 75.3111 181.064 75.3715 180.534C75.4821 179.56 76.0538 179.128 76.7627 178.554Z" fill="#FEDD35"/>
<path d="M95.579 153.906C95.8052 153.889 96.0275 153.881 96.2532 153.913C96.6407 153.968 96.9972 154.168 97.2209 154.495C97.4985 154.898 97.5059 155.391 97.3989 155.855C97.1836 156.785 96.6964 157.255 95.9299 157.744C95.8324 157.742 95.7346 157.742 95.6371 157.736C95.1535 157.706 94.7397 157.576 94.4232 157.187C94.1134 156.808 94.0664 156.336 94.1496 155.868C94.3176 154.919 94.8227 154.417 95.579 153.906Z" fill="#FEFEFE"/>
</svg>
