<svg width="154" height="220" viewBox="0 0 154 220" fill="none" xmlns="http://www.w3.org/2000/svg">
<path d="M67.755 3.48898C76.4058 -0.523484 84.0222 -1.20529 93.0956 2.12365C102.589 5.60653 110.243 13.2877 114.448 22.4061C117.443 28.8994 118.591 36.9452 116.06 43.7812C115.218 46.0455 114.016 48.1588 112.499 50.0395C114.614 51.807 115.646 54.0478 115.905 56.7828C116.248 60.4149 115.39 64.4915 113.014 67.3277C111.601 69.0142 109.651 70.1741 107.433 70.3535C106.705 70.4123 105.972 70.3673 105.244 70.3246C103.304 77.4709 99.8484 83.3044 94.4129 88.3451C94.379 89.2557 94.0595 92.6189 94.4798 93.2419C94.9154 93.3797 95.4248 93.5008 95.8269 93.7155C96.2923 93.9638 96.7833 94.529 97.1876 94.892C98.6678 96.2206 100.163 97.7312 101.923 98.6742C104.626 100.122 107.496 101.349 110.269 102.662L125.149 109.747C128.565 111.379 132.518 112.935 135.532 115.231C137.587 116.797 139.142 118.824 140.328 121.106C141.942 124.212 142.829 127.694 143.542 131.101C146.389 144.711 147.564 159.432 148.731 173.309C149.147 178.088 149.484 182.875 149.745 187.668C149.928 190.87 150.169 194.123 150.02 197.331C149.951 199.186 149.632 201.023 149.073 202.792C147.701 207.09 144.766 211.074 140.709 213.167C136.648 215.265 130.69 215.874 126.332 214.469C125.941 214.344 125.661 214.177 125.362 213.894C125.401 215.35 125.918 218.668 124.863 219.752C124.721 219.896 124.45 219.978 124.247 219.968C123.856 219.949 123.34 219.767 123.093 219.454C122.941 219.26 122.868 219.021 122.801 218.79C122.692 218.848 122.639 218.885 122.527 218.923C121.512 219.258 112.04 219.014 110.362 219.014H71.8985L45.8709 219.017C41.7487 219.017 37.0894 219.253 33.0204 218.993C32.7696 218.978 32.5792 218.911 32.3604 218.788C32.2256 219.188 32.1303 219.522 31.7363 219.729C31.335 219.94 30.9947 220.037 30.5435 219.987C30.1694 219.798 30.0059 219.61 29.8611 219.209C29.2702 217.575 29.7958 214.428 29.8184 212.621C28.414 214.086 24.0566 214.655 22.0211 214.695C17.5874 214.785 13.0114 213.179 9.80053 210.092C4.98497 205.465 3.3987 198.931 3.30778 192.461C3.22407 186.512 3.90664 180.43 4.53986 174.523C5.5787 165.171 6.81875 155.844 8.25905 146.546C9.28556 139.911 10.2724 131.658 12.3144 125.385C13.3741 122.13 14.964 118.949 17.3771 116.481C20.4659 113.323 25.3289 111.558 29.2621 109.65L43.6586 102.74C46.1959 101.53 48.8586 100.408 51.3147 99.0487C53.236 97.9855 57.5957 93.5804 59.0878 93.2962L59.0067 93.1728L59.3467 93.2806C59.7402 91.9187 59.4144 89.8287 59.3649 88.4076C53.9772 83.2131 50.5674 77.5265 48.527 70.3206C45.9778 70.4922 43.8566 70.1665 41.8607 68.4199C39.2943 66.174 38.0808 62.6425 37.894 59.3159C37.7264 56.3322 38.2968 53.3295 40.3327 51.0366C40.7463 50.5708 41.2414 50.1718 41.7275 49.784C37.592 44.1862 35.1924 38.0488 36.2417 31.0282C37.5958 21.9692 43.9246 13.3395 51.1724 7.98868C55.5565 4.7518 60.9337 2.42071 66.4835 3.25152C66.9105 3.31245 67.3348 3.3916 67.755 3.48898Z" fill="#32271E"/>
<path d="M60.713 150.548C63.9922 151.072 67.1694 152.047 70.3122 153.103L70.29 166.728C70.289 169.14 70.1023 171.735 70.4124 174.121C70.5407 175.108 70.7928 176.41 71.522 177.141C72.8441 178.469 75.224 178.452 76.9708 178.388C77.7523 178.359 78.7718 178.392 79.4771 178.052C80.1236 178.853 81.3597 179.491 82.2366 180.016C86.6815 182.719 91.4274 184.893 96.3777 186.491C97.8273 186.96 99.4475 187.051 100.851 187.578C101.756 187.918 102.24 188.917 103.047 189.249C103.031 189.275 103.015 189.302 102.998 189.327C102.413 190.205 100.903 190.631 101.136 191.918C101.575 194.343 111.144 204.768 113.301 206.719C115.228 208.45 117.31 210.001 119.52 211.353C120.138 211.734 121.657 212.744 122.348 212.643L122.802 218.789C122.693 218.848 122.64 218.884 122.528 218.922C121.513 219.258 112.041 219.013 110.363 219.013H71.8994L45.8718 219.017C41.7497 219.017 37.0903 219.253 33.0213 218.993C32.7706 218.977 32.5802 218.911 32.3613 218.788C32.4395 216.119 32.7694 213.463 32.8664 210.796C34.9213 210.364 38.9046 204.669 40.0414 202.927C41.7197 200.355 50.3704 185.318 49.9902 183.384C49.749 182.156 47.6625 181.666 46.9944 180.664C48.1061 179.842 48.7384 178.485 49.9477 177.754C51.5011 176.816 53.5025 176.273 55.2015 175.597C60.9105 173.322 63.2714 170.547 66.779 165.695C68.0354 163.956 69.6748 162.007 69.9853 159.822C70.1256 158.835 69.9595 157.819 69.3506 157.009C68.7673 156.233 67.9196 155.841 66.9739 155.712C66.0742 155.589 65.2411 155.708 64.3617 155.899C63.5805 153.544 62.6172 152.173 60.713 150.548Z" fill="#778EEE"/>
<path d="M76.0265 186.153C79.0402 185.627 81.9063 187.653 82.4179 190.669C82.9294 193.683 80.8918 196.54 77.8736 197.039C74.874 197.532 72.0383 195.511 71.5298 192.514C71.0213 189.518 73.0314 186.673 76.0265 186.153Z" fill="#32271E"/>
<path d="M76.188 188.987C77.6262 188.554 79.1423 189.372 79.5701 190.811C79.9981 192.25 79.1749 193.763 77.7338 194.186C76.2996 194.607 74.7948 193.789 74.369 192.356C73.9431 190.925 74.7564 189.418 76.188 188.987Z" fill="#FEDD35"/>
<path d="M42.7155 106.498L42.9188 106.534C43.3294 107.788 39.4261 123.057 40.196 125.128C40.5069 125.964 45.9551 128.023 47.1834 128.558C46.2108 129.929 42.9245 133.554 42.7831 135.02C42.6079 136.833 47.6824 142.645 48.9674 144.24C41.0683 148.307 37.0061 155.471 32.5482 162.751C31.7931 163.985 30.4751 166.599 29.4998 167.481C28.6978 167.367 28.1893 166.713 27.2803 166.853C26.7957 166.929 26.4575 167.284 26.1293 167.622C23.5571 170.279 21.2978 173.438 18.9339 176.291C15.9276 179.916 12.6136 183.496 9.91374 187.345C9.6294 187.751 9.29666 188.222 9.4132 188.742C9.50602 189.154 9.82548 189.502 10.1892 189.703C10.416 189.828 10.8119 189.934 11.0663 189.849C11.4047 189.737 11.6536 189.56 11.8952 189.298C13.8061 187.233 15.4988 184.861 17.3009 182.685L24.3629 174.191C25.4308 172.899 27.0271 171.348 27.7362 169.852C27.7516 169.82 27.7655 169.788 27.7801 169.753C27.8122 169.808 27.8425 169.865 27.8761 169.919C28.8949 171.551 43.0479 182.268 44.4954 182.577C44.5135 182.602 44.5296 182.63 44.5493 182.655C44.9755 183.198 46.1806 184.073 46.8337 184.189C46.1274 186.326 44.7627 188.511 43.7301 190.528C40.1496 197.521 36.0516 206.41 28.7235 210.136C25.1743 211.943 20.6072 212.302 16.8095 211.036C13.0768 209.793 10.2812 207.048 8.56341 203.565C7.05914 200.514 6.35399 197.092 6.20916 193.712C5.94665 187.59 6.71236 181.207 7.37423 175.127C8.49907 165.082 9.86325 155.065 11.466 145.085C12.4588 138.824 13.1687 131.816 15.2154 125.829C16.0713 123.325 17.4123 120.515 19.3224 118.638C22.0882 115.919 28.2096 113.497 31.8318 111.755L42.7155 106.498Z" fill="#778EEE"/>
<path d="M24.9707 126.27C25.4323 126.345 26.0169 126.416 26.3014 126.841C26.9018 127.737 27.0928 129.57 27.308 130.625C28.9531 138.517 29.8043 146.553 29.8491 154.614C29.8682 155.942 30.0823 157.729 29.7308 158.992C29.612 159.42 29.1021 159.634 28.7407 159.836C28.2523 159.767 27.6406 159.708 27.3414 159.255C26.8496 158.511 27.0089 152.628 26.9479 151.304C26.6784 145.434 26.1794 139.657 25.0999 133.874C24.8255 132.404 23.5676 128.459 23.9629 127.224C24.1269 126.713 24.5343 126.515 24.9707 126.27Z" fill="#32271E"/>
<path d="M68.1581 20.0611C68.5812 20.4508 69.4186 24.5316 69.7402 25.4378C70.3985 27.2939 71.4259 29.1095 72.5392 30.728C74.1589 33.1111 76.1823 35.1932 78.5183 36.8804C80.0675 38.0098 81.6726 38.9259 83.3955 39.7607C83.7287 39.922 85.1707 40.5296 85.3381 40.7758C85.6074 41.1721 85.048 42.0999 85.7967 42.8973C87.0711 43.5854 89.3357 42.2262 90.9275 42.5746C92.3215 42.8799 93.7231 45.0219 94.9111 44.8617C95.4599 44.7877 95.8213 44.2923 96.1322 43.8846L96.2442 43.7363C97.3314 43.962 98.6556 44.9376 99.6769 45.4433C100.839 46.0188 102.018 46.5343 103.218 47.0256C103.165 48.7075 102.695 53.9192 103.842 55.0742C104.054 55.2876 104.25 55.3823 104.559 55.3665C104.914 55.3483 105.408 54.9835 105.644 54.7191C106.303 53.9803 106.142 52.8667 106.126 51.948C106.391 51.8652 106.658 51.7906 106.926 51.7238C108.153 51.4275 109.448 51.4617 110.543 52.1418C111.777 52.9086 112.428 54.3117 112.738 55.683C113.406 58.6397 112.874 62.4283 111.189 64.9806C110.428 66.1331 108.783 67.3259 107.401 67.5482C105.445 67.8631 106.14 66.3859 104.956 65.6673C104.74 65.5362 104.527 65.498 104.287 65.5944C102.942 66.1356 102.353 70.5827 101.847 71.9404C99.627 77.9112 96.1119 83.8814 90.7367 87.5347C89.2602 88.5383 87.6656 89.2941 86.0449 90.0321C79.9711 92.4705 73.1785 92.4042 67.1536 89.8476C60.0128 86.81 55.0855 80.1947 52.4224 73.0767C51.6485 71.0083 51.2716 68.702 50.4246 66.698C50.1881 66.1382 49.9579 65.866 49.4042 65.6474C48.4616 65.7518 48.0098 66.936 47.329 67.5032C46.817 67.5622 46.2947 67.4804 45.8015 67.3354C44.1553 66.8512 42.9422 65.6237 42.1397 64.1433C40.7715 61.6197 40.3972 57.9801 41.2343 55.2327C41.6418 53.8951 42.4331 52.6213 43.7102 51.9694C45.044 51.2886 46.3719 51.5446 47.7371 51.9679C47.7348 52.7727 47.6279 53.9052 48.1218 54.5841C48.3832 54.9434 48.833 55.1054 49.2641 55.1382C49.5851 55.1625 49.8973 55.0611 50.1302 54.8364C51.2792 53.7275 50.6987 49.6534 50.6393 48.1223C56.0831 44.8545 59.2236 39.6367 61.199 33.7195C62.9267 28.5444 63.8511 23.8373 68.1581 20.0611Z" fill="#FECFAA"/>
<path d="M66.4886 72.0749C66.6543 72.0603 66.82 72.0491 66.9861 72.0413C70.8742 71.8872 74.8163 72.006 78.7099 72.0043C81.3043 72.0032 84.0884 71.7987 86.6578 72.0795C87.0862 72.1263 87.4671 72.1651 87.7856 72.4822C88.1597 72.8547 88.2757 73.3641 88.2903 73.8766C88.3818 77.0839 86.594 80.908 84.446 83.1737C82.2459 85.1838 79.7201 86.1725 76.7246 86.0932C73.7599 86.0148 70.9441 84.9087 68.8994 82.7253C66.8278 80.513 65.4942 76.9039 65.642 73.8464C65.6807 73.0471 65.8844 72.6106 66.4886 72.0749Z" fill="#32271E"/>
<path d="M68.6113 74.7648C74.0855 75.018 79.8058 74.9702 85.283 74.7714C84.5566 76.8368 84.1523 78.6324 82.9081 80.5061C81.8591 81.7974 80.4581 82.7421 78.8125 83.0693C76.6264 83.5042 74.1076 83.0372 72.2704 81.764C69.9264 80.1392 69.0872 77.4436 68.6113 74.7648Z" fill="#FE8383"/>
<path d="M62.8919 39.6265C64.094 39.4884 65.4068 39.4838 66.5713 39.8541C67.1861 40.0496 68.3265 40.4611 68.5983 41.0999C68.7418 41.4372 68.7361 41.9047 68.5694 42.2325C67.8954 43.5572 65.0735 42.5189 63.9422 42.4825C63.3473 42.4635 62.7794 42.6434 62.2175 42.8182C61.1836 43.3142 60.5014 44.3622 59.4922 44.7648C59.1854 44.8872 58.8201 44.8398 58.5344 44.6837C58.1345 44.4653 57.7429 44.0526 57.6506 43.5957C57.5705 43.1979 57.7222 42.8181 57.9389 42.4899C58.9951 40.8896 61.0817 39.9821 62.8919 39.6265Z" fill="#32271E"/>
<path d="M63.8496 52.9867C64.2413 52.9411 64.6692 52.9129 65.0579 52.9901C65.7428 53.126 66.3777 53.5814 66.7727 54.1489C67.3176 54.9321 67.4623 55.98 67.2643 56.902C67.0117 58.0786 66.401 58.7329 65.4032 59.3604C64.9264 59.4291 64.4695 59.473 63.995 59.3464C63.2509 59.1476 62.627 58.6367 62.2472 57.9733C61.7747 57.1483 61.6914 56.1019 61.9535 55.1961C62.2703 54.1017 62.884 53.5339 63.8496 52.9867Z" fill="#32271E"/>
<path d="M88.637 52.985C89.0252 52.9479 89.4496 52.9316 89.8317 53.0176C90.5721 53.1841 91.2454 53.7463 91.6222 54.3928C92.1015 55.2149 92.1975 56.2534 91.9394 57.1629C91.6317 58.2473 91.0176 58.8303 90.0633 59.3731C89.6049 59.428 89.1527 59.4796 88.7002 59.3505C87.9922 59.1484 87.3702 58.6234 87.0213 57.9778C86.5589 57.1227 86.4745 56.0681 86.7539 55.1399C87.0718 54.0832 87.6908 53.5033 88.637 52.985Z" fill="#32271E"/>
<path d="M76.5052 62.0778C76.7102 62.0691 76.9156 62.0721 77.1202 62.0869C77.5052 62.1177 77.8854 62.2625 78.1266 62.5797C78.3635 62.8914 78.3869 63.3145 78.3331 63.6878C78.1904 64.6807 77.3607 66.2025 76.5686 66.8258C76.026 66.8289 75.4916 66.8349 75.0737 66.424C74.7958 66.1507 74.7208 65.7824 74.75 65.4049C74.8315 64.3565 75.7378 62.7775 76.5052 62.0778Z" fill="#32271E"/>
<path d="M111.03 106.277L125.115 113.063C128.104 114.504 131.498 115.814 134.13 117.863C135.611 119.016 136.667 120.367 137.539 122.02C138.908 124.613 139.712 127.447 140.342 130.297C142.5 140.072 143.601 150.16 144.59 160.111C145.376 167.536 146.012 174.977 146.497 182.427C146.783 187.318 147.372 192.423 147.109 197.308C147.032 198.91 146.749 200.495 146.267 202.025C145.11 205.664 142.529 209.018 139.103 210.757C135.374 212.651 130.012 212.624 126.077 211.301C118.577 208.783 112.769 202.513 107.919 196.555C106.75 195.116 105.275 193.55 104.461 191.889C104.505 191.883 104.549 191.88 104.592 191.872C105.091 191.781 123.439 176.507 124.077 175.497C124.481 176.199 126.371 177.82 127.144 178.069C127.938 179.282 136.126 185.705 137.891 187.184C139.152 188.239 140.364 189.422 141.66 190.422C141.838 190.56 142.028 190.648 142.244 190.71C142.825 190.874 143.435 190.858 143.953 190.521C144.18 190.373 144.351 190.137 144.393 189.87C144.463 189.429 144.248 189.004 143.972 188.672C143.011 187.514 141.367 186.453 140.193 185.466L129.775 176.761C128.678 175.844 127.107 174.812 126.289 173.671C126.27 173.644 126.251 173.616 126.233 173.587C125.969 164.934 126.071 156.361 127.208 147.763C127.534 145.294 127.926 142.834 128.386 140.386C128.638 139.058 129.05 137.669 129.196 136.33C129.258 135.759 129.219 135.134 128.809 134.691C128.514 134.372 128.13 134.231 127.706 134.216C127.453 134.3 127.278 134.375 127.093 134.575C126.026 135.727 125.826 138.588 125.549 140.119C123.593 150.916 123.053 161.534 123.366 172.49C123.052 172.986 122.446 173.529 121.881 173.703C121.542 173.445 121.236 172.422 121.068 172.008C119.917 169.184 119.093 166.135 118.62 163.123C118.096 159.792 117.843 156.416 116.946 153.15C115.352 147.345 112.231 139.82 108.134 135.317C108.143 132.914 108.546 130.453 107.96 128.095C109.236 127.575 113.378 126.218 114.06 125.135C114.3 124.754 114.202 123.89 114.155 123.452C113.955 121.569 113.49 119.642 113.142 117.777C112.411 113.949 111.707 110.115 111.03 106.277Z" fill="#778EEE"/>
<path d="M107.871 139.64C108.936 140.662 109.753 142.798 110.396 144.122C112.164 147.766 113.711 151.582 114.586 155.546C115.19 158.284 115.4 161.079 115.85 163.841C116.309 166.578 117.025 169.265 117.987 171.868C118.427 173.092 118.895 174.476 119.578 175.586C119.356 175.966 105.906 187.442 105.281 187.668C104.44 187.332 103.462 185.72 102.32 185.214C101.015 184.633 99.3825 184.416 97.9938 184.035C95.8355 183.424 93.7228 182.661 91.6715 181.753C87.9848 180.147 74.5071 172.731 73.1682 168.912C73.0389 168.544 73.0028 168.125 73.1909 167.77C73.3692 167.432 73.6066 167.259 73.9584 167.136C75.0927 167.035 78.3662 169.693 79.4561 170.353C81.3381 171.492 89.4663 176.342 91.5098 175.738C91.8414 175.641 92.1195 175.429 92.2565 175.108C92.5259 174.474 92.2013 173.743 91.6899 173.337C90.9931 172.781 87.9668 171.674 86.9564 171.177C84.1384 169.793 74.0003 164.078 72.9131 161.246C72.7299 160.768 72.7872 160.282 72.9935 159.826C73.1181 159.72 73.2671 159.547 73.425 159.511C74.8879 159.174 77.9209 161.534 79.1602 162.29C82.3656 164.218 91.142 168.8 94.6804 168.559C95.1472 168.527 95.5971 168.385 95.8985 168.007C96.1378 167.707 96.2517 167.318 96.1823 166.938C96.0534 166.23 95.4898 166.018 94.8761 165.824C93.2732 165.317 91.6486 164.923 90.0634 164.351C85.6404 162.755 81.8003 160.447 77.8649 157.911C76.5996 157.096 73.2282 154.829 72.9822 153.33C72.906 152.866 73.0351 152.572 73.3183 152.216C73.8841 151.849 74.3169 151.939 74.9312 152.122C76.8509 152.693 78.6929 153.787 80.4921 154.66C84.7219 156.712 92.2336 160.232 96.8601 159.862C97.5998 159.803 98.5969 159.566 99.0668 158.947C99.2743 158.673 99.3432 158.36 99.2982 158.022C99.2462 157.632 99.0856 157.422 98.8214 157.146C97.3003 155.551 95.3461 154.154 93.6496 152.736L83.6261 144.376C82.7997 143.695 81.988 142.641 81.929 141.531C81.9068 141.117 81.9852 140.783 82.283 140.488C82.6414 140.133 83.4099 140.371 83.8036 140.533C85.6926 141.31 87.5805 142.881 89.2814 144.031C93.7035 147.01 98.0876 150.045 102.432 153.135C103.538 153.912 107.624 157.078 108.78 157.023C109.194 157 109.578 156.799 109.834 156.474C110.066 156.179 110.169 155.8 110.092 155.431C109.872 154.373 107.985 153.527 107.126 153.012C107.729 148.945 107.714 143.814 107.871 139.64Z" fill="#FECFAA"/>
<path d="M59.5721 143.71C63.1383 143.227 66.9712 144.93 70.2684 146.112L70.2806 150.15C68.3891 149.494 66.4182 148.965 64.4704 148.507C63.3341 148.24 62.1839 147.985 61.0162 147.91C60.3941 147.87 55.7445 148.26 55.4235 148.48C55.1067 148.702 54.8992 149.048 54.8527 149.433C54.8104 149.801 54.926 150.16 55.1912 150.422C55.6606 150.887 56.584 151.122 57.181 151.421C58.3629 152.014 59.5242 152.964 60.363 153.984C61.8172 155.753 62.3752 158.083 62.1173 160.339C61.9639 161.679 61.4011 162.529 60.3668 163.355C60.3712 161.546 60.177 159.648 59.253 158.044C58.0744 155.998 55.1513 153.788 52.8673 153.213C52.4021 153.096 52.0499 153.097 51.6365 153.352C51.435 153.593 51.3167 153.791 51.2575 154.105C51.1838 154.496 51.1816 154.966 51.4467 155.287C52.3331 156.359 55.0816 156.541 56.7321 159.139C57.7219 160.697 57.9469 162.354 57.5348 164.161C57.3763 164.856 56.9547 166.291 56.2875 166.661C56.0438 166.796 55.9417 166.737 55.6887 166.674C55.0526 165.944 55.5323 164.397 55.3398 163.423C54.9993 161.701 53.7469 160.384 52.3362 159.432C51.3345 158.757 49.5537 157.523 48.3125 157.827C47.9897 157.906 47.6744 158.151 47.5246 158.45C46.6152 160.268 51.9689 161.688 52.6824 163.594C53.1309 164.792 52.7906 166.331 52.2578 167.443C51.6291 168.755 50.6841 169.761 49.2867 170.241C48.8188 170.401 48.4718 170.456 48.0187 170.23C47.8427 170 47.7566 169.837 47.7063 169.546C47.4914 168.307 48.4465 167.616 49.0687 166.701C49.4161 166.19 49.534 165.809 49.3924 165.194C49.2866 164.735 49.1077 164.606 48.7316 164.38C48.5078 164.359 48.3334 164.351 48.1149 164.418C47.1004 164.725 46.3447 165.608 45.8383 166.5C45.2307 167.569 44.8511 168.945 45.1855 170.159C45.2353 170.457 45.2869 170.765 45.393 171.048C45.6838 171.824 46.3155 172.517 47.0854 172.828C48.2339 173.291 49.6086 173.088 50.7199 172.616C52.2536 171.965 53.6193 170.67 54.2531 169.123C54.3163 169.159 54.4017 169.214 54.4742 169.241C55.2329 169.52 56.4876 169.381 57.2178 169.043C58.5121 168.447 59.2127 167.449 59.7051 166.154C60.2178 166.276 60.7092 166.075 61.1864 165.896C63.1409 165.16 64.3459 162.793 64.6792 160.845C64.7942 160.173 64.7422 159.239 65.0123 158.629C65.2446 158.501 65.4274 158.438 65.6937 158.407C66.2979 158.336 66.7688 158.361 67.254 158.745C67.3489 158.987 67.4068 159.17 67.3707 159.433C67.1549 161.014 65.5889 162.73 64.6566 164C61.1014 168.846 59.286 171.103 53.5417 173.278C51.9719 173.872 50.1277 174.387 48.713 175.288C46.9538 176.41 46.1737 178.101 44.7976 179.136C44.7397 179.13 44.6452 179.124 44.5844 179.107C43.3447 178.75 32.335 170.558 31.6289 169.303C32.4047 168.764 38.7748 157.778 40.0583 155.972C44.972 149.056 51.21 145.112 59.5721 143.71Z" fill="#FECFAA"/>
<path d="M51.3356 102.364L51.4384 102.377C51.5149 102.433 51.6189 102.462 51.6681 102.543C51.9215 102.959 53.1902 108.066 53.484 109.022C55.0963 114.112 56.8375 119.161 58.706 124.163C60.8511 130.063 63.0186 135.927 65.6283 141.641C61.1707 140.368 57.562 141.095 53.2766 142.466L51.7045 143C49.669 140.476 47.7044 137.895 45.8131 135.261C47.0613 133.634 49.7402 130.602 50.5114 128.849C50.7209 128.373 50.8295 127.877 50.6101 127.382C50.0219 126.054 44.6708 124.211 43.125 123.544C44.1599 117.303 45.3092 111.081 46.3004 104.832L51.3356 102.364Z" fill="#778EEE"/>
<path d="M62.1008 90.4225C64.8775 91.986 67.6105 93.2693 70.7287 93.9954C77.9813 95.6841 85.4204 94.1922 91.6911 90.2788C91.7839 92.3953 91.882 94.3496 92.3401 96.4231C90.3888 98.3806 88.5081 100.42 86.5978 102.418C83.4648 105.694 80.1856 108.804 76.8819 111.906C71.6117 106.864 66.478 101.682 61.4863 96.365C61.9557 94.4103 62.006 92.4205 62.1008 90.4225Z" fill="#FECFAA"/>
<path d="M95.4259 97.3577C96.7861 98.5114 98.1594 99.6499 99.5454 100.773C97.5649 108.287 94.8936 115.61 92.1303 122.865L86.9866 119.209C84.3937 117.389 81.8168 115.546 79.2559 113.681C84.9093 108.48 90.1722 102.954 95.4259 97.3577Z" fill="#FEFEFE"/>
<path d="M58.3838 97.3548C59.6437 98.2296 63.5078 102.695 64.8353 104.094C67.9549 107.336 71.1308 110.523 74.3617 113.653C71.7796 115.318 69.2916 117.188 66.7737 118.952C65.0147 120.148 63.2876 121.397 61.5497 122.623C58.7034 115.483 56.2508 108.192 54.2031 100.783C55.6184 99.669 56.9951 98.502 58.3838 97.3548Z" fill="#FEFEFE"/>
<path d="M102.152 102.161C104.015 103.074 105.907 103.938 107.783 104.823C108.665 111.102 109.948 117.359 111.101 123.593L106.192 125.6C105.695 125.286 105.165 125.061 104.628 124.825C102.137 124.171 97.4677 124.56 94.8008 124.587C97.6239 117.28 100.274 109.77 102.152 102.161Z" fill="#778EEE"/>
<path d="M70.7357 119.579C71.3369 119.873 72.7922 124.024 73.1439 124.892C72.9209 125.009 72.702 125.133 72.4881 125.266C71.6453 125.782 70.9833 126.434 70.6203 127.368C69.7229 129.676 70.1492 137.188 70.1714 140.076C70.1783 140.954 70.3087 142.043 70.1086 142.894L69.9044 142.956C68.9874 142.466 68.4504 140.633 68.0487 139.713C65.9506 135.019 64.1906 130.234 62.4844 125.388C65.2748 123.523 68.0216 121.553 70.7357 119.579Z" fill="#FEFEFE"/>
<path d="M82.7838 119.75C84.5453 120.659 87.8262 123.338 89.5715 124.608L87.6687 124.621L80.7891 124.639C81.4832 123.022 82.1481 121.392 82.7838 119.75Z" fill="#FEFEFE"/>
<path d="M77.8159 131.921C78.6507 131.669 79.5565 131.886 80.1871 132.488C80.8176 133.09 81.0758 133.984 80.8628 134.83C80.6498 135.675 79.9988 136.34 79.1581 136.572C77.8801 136.924 76.5567 136.183 76.1892 134.909C75.8218 133.636 76.5468 132.304 77.8159 131.921Z" fill="#FEFEFE"/>
</svg>
