<svg width="56" height="56" viewBox="0 0 56 56" fill="none" xmlns="http://www.w3.org/2000/svg"><path d="M27.933 28.092a4.523 4.523 0 1 1 .118 9.046 4.523 4.523 0 0 1-.118-9.046m-13.521-3.939a4.523 4.523 0 1 1 .801 9.01 4.523 4.523 0 0 1-.801-9.01m26.417 0a4.523 4.523 0 1 1 .682 9.02 4.523 4.523 0 0 1-.683-9.02m-28.783-7.918c.256-.027.515.027.74.153.283.156.492.42.58.73.09.328.043.677-.13.969q-.137.225-.355.376c-.363.253-.817.43-1.213.628-.54.27-1.398.77-1.96.915-.295.016-.57-.035-.82-.199a1.22 1.22 0 0 1-.544-.786c-.064-.335.01-.68.205-.96a1.2 1.2 0 0 1 .353-.332c.348-.226.766-.398 1.137-.583.496-.248 1.495-.818 2.007-.911m31.632-.001c.18-.013.35.005.522.061.406.132.809.38 1.192.572.523.261 1.068.506 1.577.793.333.188.563.417.665.793.085.313.037.678-.13.956-.203.335-.52.499-.888.594a1.35 1.35 0 0 1-.548-.063c-.39-.129-.913-.435-1.295-.626-.509-.254-1.121-.516-1.598-.813a1.17 1.17 0 0 1-.554-.764 1.3 1.3 0 0 1 .17-.965c.21-.323.519-.467.886-.538" fill="#667F99"/><path d="M21.55 7h1.187l.017.006c.196.07.418.09.622.134.276.059.564.15.825.26 1.287.545 2.1 1.52 3.061 2.483.233.233.475.52.74.716 1.226-1.122 2.169-2.49 3.732-3.177.294-.13.608-.223.921-.29.184-.04.411-.058.582-.132h1.177c.192.068.407.082.606.126.332.073.664.188.976.324a5.36 5.36 0 0 1 2.846 2.98 5.4 5.4 0 0 1-.11 4.118c-.22.491-.513.946-.869 1.35-.469.535-1.007 1.029-1.511 1.532l-2.695 2.694-3.118 3.12c-.547.547-1.08 1.125-1.652 1.645a1.5 1.5 0 0 1-.508.325 1.16 1.16 0 0 1-.89-.053 1.6 1.6 0 0 1-.391-.277c-.614-.566-1.192-1.189-1.782-1.78l-3.443-3.444-2.44-2.438c-.462-.462-.96-.913-1.38-1.413a5.3 5.3 0 0 1-.961-1.677 5.4 5.4 0 0 1 .251-4.142 5.35 5.35 0 0 1 3.094-2.714c.228-.077.456-.128.692-.177.125-.025.263-.042.382-.085z" fill="#36C99F"/><path d="M45.881 33.832c.373.13.756.282 1.103.47a3.83 3.83 0 0 1 1.813 2.15c.086.263.124.54.203.805v10.737c-.215.513-.332.729-.877.955l-.064.025c-.031.013-.019.007-.048.026h-9.94c.097-.307.166-.618.191-.94.034-.438.018-.884.018-1.324v-4.202c0-.508.013-1.02-.037-1.527a6.3 6.3 0 0 0-.399-1.67c-.672-1.728-1.898-2.839-3.573-3.578-.011-.04-.004-.059.01-.099.038-.113.104-.218.15-.328.059-.14.096-.298.168-.43.259-.476 1.368-.9 1.886-1.062.257.194.498.405.764.588a6.9 6.9 0 0 0 2.967 1.146 6.93 6.93 0 0 0 4.622-.976c.369-.23.7-.503 1.043-.766m-26.37.005c.518.148 1.628.605 1.887 1.074.13.237.255.575.346.833-.354.173-.71.327-1.046.533a6.26 6.26 0 0 0-2.943 4.746c-.049.534-.037 1.07-.037 1.604v4.164c0 .42-.016.846.017 1.265.026.322.096.635.191.944h-9.94c-.419-.186-.648-.286-.868-.715-.038-.072-.061-.15-.1-.221L7 48.03V37.17l.016-.031c.11-.22.144-.613.25-.875.506-1.252 1.376-1.885 2.602-2.339q.125-.047.255-.082c.34.265.668.534 1.034.762a6.96 6.96 0 0 0 4.56.977 6.84 6.84 0 0 0 3.005-1.145c.272-.187.515-.422.79-.6" fill="#667F99"/><path d="M32.707 37.784c.339.133.685.26 1.01.425a3.83 3.83 0 0 1 2.077 3.005c.036.38.023.768.023 1.149v4.124c0 .42.015.846-.005 1.265a1.5 1.5 0 0 1-.073.452c-.141.352-.407.583-.752.727-.053.022-.107.04-.156.07H21.157c-.387-.205-.777-.366-.919-.832-.048-.159-.052-.368-.058-.534-.016-.454-.003-.912-.003-1.366v-3.961c0-.414-.011-.838.05-1.249a3.8 3.8 0 0 1 .512-1.422c.626-1.05 1.454-1.432 2.545-1.847l.021.014c.167.11.316.243.473.366q.306.236.638.437a6.98 6.98 0 0 0 4.957.853 6.9 6.9 0 0 0 2.597-1.113c.252-.177.48-.397.736-.563M46.185 7h.513c.074.044.162.07.24.107.245.115.471.303.602.542.153.278.173.657.077.958-.125.395-.414.62-.767.805-.454.238-.92.454-1.378.685-.374.188-.984.555-1.364.645a1.26 1.26 0 0 1-.667-.024 1.26 1.26 0 0 1-.731-.624 1.28 1.28 0 0 1-.05-.949 1.2 1.2 0 0 1 .398-.566c.272-.217.635-.35.945-.505zM9.281 7h.521c.14.092.338.153.492.228l1.621.807c.304.152.644.291.925.482.15.102.283.219.38.374.177.28.233.642.154.963-.079.317-.31.602-.59.766-.281.164-.61.193-.922.11-.414-.11-1.19-.56-1.62-.775-.434-.216-1.002-.445-1.387-.71a1.25 1.25 0 0 1-.391-.428 1.3 1.3 0 0 1-.08-.989c.148-.469.495-.623.897-.828" fill="#667F99"/></svg>