<svg width="12" height="12" viewBox="0 0 12 12" fill="none" xmlns="http://www.w3.org/2000/svg">
<path d="M6 8.5C6.14167 8.5 6.26042 8.45208 6.35625 8.35625C6.45208 8.26042 6.5 8.14167 6.5 8C6.5 7.85833 6.45208 7.73958 6.35625 7.64375C6.26042 7.54792 6.14167 7.5 6 7.5C5.85833 7.5 5.73958 7.54792 5.64375 7.64375C5.54792 7.73958 5.5 7.85833 5.5 8C5.5 8.14167 5.54792 8.26042 5.64375 8.35625C5.73958 8.45208 5.85833 8.5 6 8.5ZM5.5 6.5H6.5V3.5H5.5V6.5ZM6 11C5.30833 11 4.65833 10.8688 4.05 10.6062C3.44167 10.3438 2.9125 9.9875 2.4625 9.5375C2.0125 9.0875 1.65625 8.55833 1.39375 7.95C1.13125 7.34167 1 6.69167 1 6C1 5.30833 1.13125 4.65833 1.39375 4.05C1.65625 3.44167 2.0125 2.9125 2.4625 2.4625C2.9125 2.0125 3.44167 1.65625 4.05 1.39375C4.65833 1.13125 5.30833 1 6 1C6.69167 1 7.34167 1.13125 7.95 1.39375C8.55833 1.65625 9.0875 2.0125 9.5375 2.4625C9.9875 2.9125 10.3438 3.44167 10.6062 4.05C10.8688 4.65833 11 5.30833 11 6C11 6.69167 10.8688 7.34167 10.6062 7.95C10.3438 8.55833 9.9875 9.0875 9.5375 9.5375C9.0875 9.9875 8.55833 10.3438 7.95 10.6062C7.34167 10.8688 6.69167 11 6 11ZM6 10C7.11667 10 8.0625 9.6125 8.8375 8.8375C9.6125 8.0625 10 7.11667 10 6C10 4.88333 9.6125 3.9375 8.8375 3.1625C8.0625 2.3875 7.11667 2 6 2C4.88333 2 3.9375 2.3875 3.1625 3.1625C2.3875 3.9375 2 4.88333 2 6C2 7.11667 2.3875 8.0625 3.1625 8.8375C3.9375 9.6125 4.88333 10 6 10Z" fill="#E61300"/>
</svg>
