<svg width="21" height="20" viewBox="0 0 21 20" fill="none" xmlns="http://www.w3.org/2000/svg">
<path fill-rule="evenodd" clip-rule="evenodd" d="M13.0025 3.33325C13.6225 3.33325 14.2775 3.54992 14.8775 3.78909L15.3166 3.96909C16.3666 4.40909 16.9566 5.33242 17.4141 6.34659C18.1566 7.99242 18.6725 10.1866 18.8508 11.8549C18.9358 12.6466 18.9566 13.4433 18.8041 13.9791C18.64 14.5516 18.0816 14.9566 17.5391 15.2749L17.2708 15.4274L16.9925 15.5824C16.8491 15.6624 16.7016 15.7416 16.555 15.8191L16.12 16.0441L15.5225 16.3416L15.0416 16.5783C14.9434 16.6312 14.8355 16.6639 14.7244 16.6744C14.6133 16.6849 14.5012 16.673 14.3948 16.6393C14.2884 16.6057 14.1899 16.551 14.105 16.4785C14.0201 16.406 13.9507 16.3173 13.9007 16.2174C13.8508 16.1176 13.8215 16.0088 13.8144 15.8974C13.8074 15.786 13.8228 15.6744 13.8597 15.5691C13.8966 15.4637 13.9543 15.3669 14.0294 15.2843C14.1044 15.2017 14.1953 15.1351 14.2966 15.0883L14.955 14.7633L14.4716 14.2558C13.3133 14.7308 11.9491 14.9999 10.5 14.9999C9.0508 14.9999 7.68664 14.7316 6.5283 14.2558L6.04497 14.7624L6.7058 15.0874C6.80375 15.1363 6.8911 15.2041 6.96287 15.2867C7.03464 15.3694 7.08942 15.4654 7.12409 15.5693C7.15875 15.6731 7.17263 15.7828 7.16491 15.892C7.1572 16.0012 7.12806 16.1078 7.07914 16.2058C7.03022 16.3037 6.96249 16.391 6.87982 16.4628C6.79714 16.5346 6.70114 16.5894 6.59729 16.624C6.38756 16.694 6.15861 16.6779 5.9608 16.5791L5.50747 16.3541C5.17247 16.1874 4.83664 16.0224 4.50497 15.8483L3.73164 15.4274L3.46414 15.2749C2.92164 14.9566 2.36247 14.5516 2.19914 13.9791C2.0458 13.4433 2.06747 12.6474 2.15164 11.8541C2.32997 10.1866 2.8458 7.99242 3.5883 6.34659C4.0458 5.33242 4.6358 4.40909 5.6858 3.96909C6.38247 3.67742 7.22664 3.33325 7.99997 3.33325C8.50247 3.33325 8.89747 3.79575 8.82497 4.28909C9.37952 4.20703 9.93938 4.16609 10.5 4.16659C11.0758 4.16659 11.6383 4.20825 12.1783 4.28992C12.1622 4.17158 12.1715 4.05117 12.2055 3.93668C12.2394 3.82218 12.2973 3.7162 12.3753 3.62576C12.4533 3.53532 12.5496 3.46247 12.6579 3.41205C12.7662 3.36162 12.8831 3.33476 13.0025 3.33325ZM7.79164 8.74992C7.40486 8.74992 7.03393 8.90356 6.76044 9.17705C6.48695 9.45055 6.3333 9.82148 6.3333 10.2083C6.3333 10.595 6.48695 10.966 6.76044 11.2394C7.03393 11.5129 7.40486 11.6666 7.79164 11.6666C8.17841 11.6666 8.54935 11.5129 8.82284 11.2394C9.09633 10.966 9.24997 10.595 9.24997 10.2083C9.24997 9.82148 9.09633 9.45055 8.82284 9.17705C8.54935 8.90356 8.17841 8.74992 7.79164 8.74992ZM13.2083 8.74992C12.8215 8.74992 12.4506 8.90356 12.1771 9.17705C11.9036 9.45055 11.75 9.82148 11.75 10.2083C11.75 10.595 11.9036 10.966 12.1771 11.2394C12.4506 11.5129 12.8215 11.6666 13.2083 11.6666C13.5951 11.6666 13.966 11.5129 14.2395 11.2394C14.513 10.966 14.6666 10.595 14.6666 10.2083C14.6666 9.82148 14.513 9.45055 14.2395 9.17705C13.966 8.90356 13.5951 8.74992 13.2083 8.74992Z" fill="#586AEA"/>
</svg>
