<svg width="307" height="100" viewBox="0 0 307 100" fill="none" xmlns="http://www.w3.org/2000/svg"><path d="M304.649 7.092q0 .533-.304.876t-.762.038q-.343-.23-1.599-.19-2.095.038-2.095-.534 0-.342.533-.876.23-.228.343-.266.114-.077.419 0 .457.075 1.752.076 1.142 0 1.409.152.304.153.304.724M288.198 8.92q.609-.42.837-.457.267-.077.381.19a.65.65 0 0 1 0 .61q-.152.266-.838.875a9 9 0 0 0-.875.952q-.457.609-.991 1.41-.533.76-.723 1.028-.19.266-.457.837-.23.572-.495.914-.23.343-.724.61-.762.38-.99-.076-.381-.725.952-2.21.381-.417 1.523-2.246a8.1 8.1 0 0 1 2.4-2.437m-.115 6.893q.42.151.572.609t-.153 1.028q-.228-.267-.457 3.047-.114 1.294-.038 1.942.267.57-.228 1.333-.457.761-1.029.533-.57-.151-.342-1.257.114-.456.19-1.37.114-.953.191-2.21.075-1.256.114-1.637.114-.495 0-.495-.115 0-.724.838-.572.8-.723 1.142a2.96 2.96 0 0 1-.724 1.219q-.495.457-1.142.533a.73.73 0 0 1-.381-.305.8.8 0 0 1-.076-.495q.19-.457 1.332-1.98 1.182-1.561 1.448-2.018.57-.838 1.371-1.905.837-1.065 1.371-1.828.876-1.41 1.104-1.56.533-.306.838.075t-.076.876q-.952 1.866-1.828 2.856-.876 1.029-.61 1.029m15.462-.534q0-1.599-.228-1.599-.076 0-.343.152-.229.114-1.524.42-1.256.266-1.637.266-.685 0-.838-.533-.152-.534.457-.876.343-.267.533-.305.19-.076.914-.076.762.076 1.6-.267.837-.38 1.371-.8.151-.266.723-.38.571-.114.724-.153.571-.266.8.19.228.459-.191.991l-.343.343q-.076.114-.19.343-.076.228-.114.38 0 .114-.076.648-.077.495-.191.99-.076.685-.266 3.922-.19 3.2-.191 4.151.039 1.41-.152 1.828-.381.838-.99.952a1.67 1.67 0 0 1-1.143-.266q-.533-.381-1.257-.914-.723-.57-1.066-.724a3 3 0 0 0-.495-.228 2.3 2.3 0 0 1-.419-.19 1.5 1.5 0 0 0-.266-.191 1 1 0 0 1-.229-.343 7 7 0 0 1-.152-.533q-.152-.457.457-.762.609-.304.876.077 1.941 1.56 2.894 2.018.267.076.381-.114.151-.23.114-.61 0-1.408.19-3.922.23-2.513.267-3.885M269.385 2.94q.419-.38.799-.228.42.153.457.571a.87.87 0 0 1-.266.724q-.534.457-1.485.723-.38.115-.724 1.6-.19 1.104-1.371 2.666 0 .265 1.143-.381 3.35-1.638 4.646-2.057.57-.038.533.496 0 .533-.381.875-.533.457-1.79.876-1.218.42-1.904.838-1.104.572-2.209.99a19 19 0 0 1-1.752.61 74 74 0 0 1-2.475.609l-1.066.305q-.838-.725-.457-1.143.304-.61 1.371-.761 1.332-.153 1.828-.305a9 9 0 0 0 .723-.229q.19-.075.381-.57.228-.534.533-.915.953-1.332 1.028-2.247.077-.532-.076-.61-.114-.113-.685.077-1.638.685-2.019-.914 0-.381 1.219-.533 1.334-.19 1.599-.38.306-.192.343-.877.077-.304.114-.495a6 6 0 0 1 .115-.457q.114-.304.228-.457a1 1 0 0 1 .267-.305.36.36 0 0 1 .343-.114q.228 0 .495.152.266.191 0 1.333-.152.648-.077.762.115.114.572-.228m-14.091 4.57q.686.191.99.99.305.763-.419 1.143-.152.19-.457-.038a6 6 0 0 1-.609-.533q-.305-.343-.419-.305-.876-.19-1.066-.342-.19-.19-.191-.762-.037-.725.419-.876.495-.153.99.305.344.266.762.419m7.54 16.68q0 .078-.875.8-.838.724-.953.61a.65.65 0 0 1-.418-.152q-.19-.153-.191-.305.228-.648 2.095-2.59 1.866-1.941 1.942-2.132.151-.267.381-.495.266-.267.381-.42.075-.189-.267-.342-.952-.381-.114-1.41.343-.457.457-1.065.114-.61.152-1.98.038-.382.038-.877v-.685q.039-.153.114-.381a.6.6 0 0 1 .305-.305q.228-.075.647-.152.267 0 .419.38.153.267.267.267.153 0 .952-.304.648-.38 1.561-.229.952.153.762.99-.114.915-1.409 2.171-.571.571-.495.8.19.61.076 1.028-.114.42-.647.952-.495.534-.61 1.105-.114.57-.038 2.208.076 1.676.115 1.714.075.039.761-.8.495-.647.571-.876.077-.228-.19-.342-.38-.114-.419-.762-.038-.57.191-.762.228-.228 1.18-.647 1.409-.57 2.095-1.18.418-.344.609-.381.19-.077.457.114.267.19.228.723 0 .495-.342.648-1.486 1.256-1.447 1.637.037.229.571.534.457.228 1.675 1.142 1.828 1.333 2.476 1.752.647.38.952.38.495 0 .647.343.191.344-.038.914-.266.762-.723.762-.153.039-.952-.533l-1.752-1.333q-.953-.723-1.295-.914-.266-.153-.8-.533a6 6 0 0 0-.99-.648 2.2 2.2 0 0 0-.914-.304q-.151 0-.99 1.256-1.18 1.752-1.638 2.247-.418.457-.799.457t-.495-.342q-.077-.344-.077-1.905 0-2.817-.266-2.97-.19.114-.8.762-.609.609-1.371 1.485-.723.837-.762.876m5.675-9.977q0-.038-.038-.038 0-.037-.076 0a.6.6 0 0 0-.191.038l-.343.114q-.875.343-1.028.876a1 1 0 0 0 0 .381q.039.152.152.152.115 0 .8-.685.724-.724.724-.838m-13.786 4.075a6 6 0 0 1-.191.267l-.19.19-.076.152q-.039.076.038.153.076.075.228.152.42.228.61.419.228.153.533.457.304.305.381.647.114.305.114.8t-.229 1.066q-.495 1.486-1.561 2.666a4 4 0 0 1-.419.495 4 4 0 0 0-.266.343l-.153.229q-.076.075.038.114.114.037.267.076.19.037.571.076 1.828.227 5.979.686 4.189.456 5.408.609 1.066.152 2.133.19h2.665q1.6-.038 1.981-.038.914 0 1.751-.076a85 85 0 0 0 2.019-.305 108 108 0 0 1 1.714-.266q1.332-.229 1.751-.381.648-.343.953.152.304.457-.077.952-.114.229-.685.42-.571.15-1.562.304-.99.153-1.18.19-2.247.495-4.151.534a35 35 0 0 1-4.265.114q-1.942-.077-2.476-.152a68 68 0 0 1-2.323-.267 79 79 0 0 0-3.808-.457 41 41 0 0 1-2.209-.229 111 111 0 0 0-2.666-.304 34 34 0 0 0-2.628-.153q-1.485-.075-2.018.115-.571 0-.762-.229-.342-.42 0-.914.344-.495 1.143-.723a2.4 2.4 0 0 0 1.142-.686q.267-.304.495-.533.23-.267.381-.419l.305-.38a4 4 0 0 1 .228-.267q.077-.115.191-.305t.152-.228q.039-.039.191-.267.152-.267.19-.343.114-.075.305-.533.19-.495.19-.686-.609-1.104-1.333-1.218-.99-.42-1.104-.838-.114-.42.571-1.142.685-.762 1.219-1.486.532-.762.495-.99 0-.19-.153-.228-.114-.039-.914-.039h-.723q-.19 0-.457-.038-.267-.075-.343-.152a1 1 0 0 1-.038-.304q0-.229.114-.534.114-.457 1.524-.495 1.446-.075 1.79.115.837.342.609 1.447-.229 1.066-1.409 2.475m-13.025-1.069q.458.342.609.342.039-.075.876.343.876.381 1.866.876 1.029.495 1.257.571.496.115.571.534.115.419-.266.837-.61.724-1.409-.038-.458-.456-1.904-1.104-1.41-.685-1.676-.571-.039 0-.076.038a.6.6 0 0 1-.038.152q0 .076-.038.19a2.4 2.4 0 0 0-.077.381 4 4 0 0 1-.114.495 10 10 0 0 1-.152.686q-.114.42-.191.876-.951 3.846-2.018 4.494-.38.304-.8.228-1.028-.076-1.79-1.447-.647-.953-.342-1.371.228-.267.647.343.571 1.065 1.219 1.028.647-.075.99-1.18.762-1.905 1.142-4.418.153-.838.038-.99.039-.077-.761-.305a40 40 0 0 0-2.057-.61q-1.218-.38-1.409-.418-.19-.076-.304-.381-.077-.305.038-.533.38-.38 1.028-.343.685.038 1.18.228.534.191 1.219.457.685.267 1.066.305.23 0 .267-.038.077-.037.114-.267.19-.837.267-2.894.114-2.094-.038-2.78-.114-.267-.381-.228-.229.037-.99.457a8 8 0 0 0-.533.228q-.42.19-.534.267-.075.037-.419.19l-.457.152a2.3 2.3 0 0 0-.38.077q-.267.037-.381 0a1.2 1.2 0 0 0-.343-.038.86.86 0 0 1-.381-.153 4 4 0 0 0-.304-.266 2.7 2.7 0 0 1-.381-.381q-.457-.495-.571-1.752-.115-1.294.266-1.942.228-.305.648-.305.419 0 .723.38.304.344 0 .724-.152.306-.114.838.038.534.266 1.028.229.495.419.381.685-.038 1.981-.761 1.332-.724 2.094-.724.495.038.686.305.19.228.381 1.104.152.457.19 1.219.037.723 0 1.295-.038.533-.152 1.523-.077.99-.077 1.257zm-23.764-3.77a1 1 0 0 0 .381 0 1 1 0 0 1 .381 0 .46.46 0 0 1 .305.228q.304.228.418.648.115.38.229 1.56.19 1.981.419 1.981.152 0 .571-1.409.762-1.371 1.752-1.295.381-.076 1.142.648.801.685.876 1.066.076.228.267.647.228.42.343.8.114.343.19.762.153.762.305.838.152.037.571-.495.762-1.105 1.066-.648.19.228 0 .762-.076.114-.571.952-.495.8-.609.914-.534.647-.533 1.904 0 .648-.229 1.714-.19 1.066-.381 1.485-.228.42-.647.571-.419.114-.724-.152-.19-.343-.152-.495.038-.19.228-.495.23-.305.267-.457.076-.305.114-.762t-.038-.495q-.037-.038-.99.876-1.333 1.295-1.714 1.295-.037 0-.342-.229-.267-.266-.343-.228-.114.038-.153.647.039.952-.837 1.219-.343 0-.457-.381-.077-.381-.077-2.133-.037-3.464-.114-4.532-.038-1.065-.342-2.932-.23-1.485-.381-1.98-.153-.495-.419-.495-.19 0-.838.609a9.3 9.3 0 0 0-.99 1.143q-.686 1.104-.952 1.409-.23.266-.495.266-.495 0-.495-.647 0-.267.38-.99.381-.724.8-1.181.228-.19.876-1.637a219 219 0 0 0 1.295-2.857q.647-1.41.876-1.409.076-.038.266-.19l.267-.267a.9.9 0 0 1 .343-.114.44.44 0 0 1 .457.114q.19.114.114.648 0 .38-.457 1.142-.419.724-.838 1.371-.418.61-.381.685m4.989 3.656q-.837-.534-1.257.228a3.4 3.4 0 0 0-.304.419 6 6 0 0 0-.229.419l-.19.38a8 8 0 0 0-.114.382 9 9 0 0 1-.115.38 6 6 0 0 0-.114.457 2.5 2.5 0 0 1-.076.42q0 .075-.076.494a3 3 0 0 1-.076.495q.305.039 1.104-.609.838-.646 1.181-.762.837-.456.99-.609.151-.19 0-.61-.343-1.103-.724-1.484m.952 4.912q.114-.342.114-.761.039-.457-.228-.534-.343.076-1.066.648-.724.57-.8.61-1.6 1.332-1.562 2.094 0 1.104.229 1.104.228 0 1.714-1.409t1.599-1.752M196.418 6.52q-.343.534-.457.19-.114-.418.343-.951.153-.153.457-.61.342-.456.647-.761.344-.304.762-.495.267-.153 1.714-.952 1.485-.8 2.247-1.029 1.6-.495 2.285.42.723.875.076 2.322-.077.19-.419.953-.344.76-.495 1.104-.114.304-.495.952a5.6 5.6 0 0 1-.648.952 6.5 6.5 0 0 1-.723.686q-.42.342-.914.57-.418.152-1.371.686-.915.495-1.333.648-.723.38-1.257-.572-.076-.266-.038-.418.038-.19.343-.648.305-.342.419-1.866.152-1.523-.229-1.828-.152-.076-.457.152-.266.19-.457.496m6.893-2.97q-.037-.304-.457-.343-.38-.038-.457.305-.076.304-.838 1.333-.723.99-.837 1.561-.039.23-.381.724-.305.495-.533.876-.19.342-.038.457.075-.039.914-.724.875-.685.99-.685.343-.114.952-1.6.647-1.523.685-1.904m-3.046.876q0-.267-.8.495-.419.38-.457.571-.153.267-.114.762.037.457.19.685.038 0 .609-1.18.572-1.22.572-1.333m-7.084.647q-.038-.19.229-.342a1.14 1.14 0 0 1 .609-.19q.304-.038.457.075.229.191.343.457.152.23.266.61.153.342.305.609.685 1.524.876 2.856.19 1.905-.267 2.361-.266.267-.723.153-.42-.153-.495-.61-.039-.495-.076-1.104a13 13 0 0 0-.077-.914 7 7 0 0 0-.152-.762 3.7 3.7 0 0 0-.305-.99 25 25 0 0 0-.609-1.295q-.381-.799-.381-.914m-6.245 7.731q.38 0 .875 1.524.496 1.485.61 2.932.228 1.448-.305 4.303-.532 2.82-1.257 3.885-.228.342-.837 1.752-.61 1.408-.838 1.6a1.7 1.7 0 0 1-.914.418q-.534.075-.762-.19-.151-.19-.495-1.029-.305-.838-.19-1.066.076-.343.228-.495.19-.153.343 0 .152.114.152.457.153 1.676.99 0l.305-.61q.077-.304.647-1.523.572-1.218.686-1.637.381-1.105.609-2.666.229-1.6.191-2.78-.077-1.22-.267-1.219-.152 0-.419.8-.381 1.066-1.218 2.704-.952 1.789-1.6 2.513-.648.686-1.219.572-.19-.039-.38-.343a1.6 1.6 0 0 1-.153-.724q0-.304.686-.99.723-.686.838-.876.914-1.333 2.246-4.874.38-.572.229-1.105-.114-.533-.647-.723-.344 0-.762 1.18-.19.495-.609 1.104-.381.571-.648.724-.19.114-.381.533-.38.724-.761.952-.38.19-.61-.152-.19-.267-.152-.457.076-.229.533-.838.228-.342.571-.8.38-.494.61-.914.266-.456.495-1.218.19-.648.076-.8-.076-.191-.8-.457-.647-.114-.685-.457 0-.38.228-.8.153-.19.229-.19.114-.038.533 0 .914.114 1.066.076.19-.038.305-.419.267-.837.609-2.742.115-.342.457-.571.344-.266.762.076a.62.62 0 0 1 .228.571q0 .19-.152.8a31 31 0 0 1-.381 1.371q-.19.762-.228 1.066-.115.42-.115.534.039.076.229.228.076.076.571.533.495.42.648.457m13.024 7.312q.267 0 .762.457l.495-.19q1.18-.648 1.599.761 0 .229-.533.953-.495.723-1.142 1.56-.61.84-.8 1.181-.19.457-.038.61.114.114.381-.076.305-.191.609-.457.305-.305.419-.305.114-.075.304-.229.229-.152.419-.266t.419-.19q.23-.115.457-.077.267.04.495.19.267.191.343.42.076.19.229 1.104.114.686.342 1.447.267.723.419.762.19.075.724-1.028.571-1.143.952-2.476.305-1.104.381-1.79.114-.723.19-2.666.153-1.256.076-1.904-.076-.647-.228-.8-.114-.19-.61-.494a2 2 0 0 1-.19-.077 2 2 0 0 0-.19-.076.3.3 0 0 0-.115-.038h-.19a.6.6 0 0 0-.19-.038h-.572q-.876 0-2.17.876-1.257.837-1.6.99-.457.152-1.219.686-.76.495-1.371.875-.609.343-.837.343-.153.038-.762.267a4.5 4.5 0 0 1-1.104.228q-.572.076-.8-.152-.229-.267-.305-.8.039-.647.99-2.285.99-1.637 1.143-2.056.038-.115.457-.838.418-.762.495-1.142.077-.496.228-.686.153-.19.61-.19.914 0 .647 1.066-.19.762-1.104 2.475t-1.143 2.323q0 .381 1.447-.304.534-.267.952-.572.343-.228 1.828-1.104 1.486-.914 1.943-1.257.228-.114 1.142-.228.914-.153 1.409-.153.572 0 1.409.534.876.533 1.219 1.104.38.647.457 1.676.114.99-.076 1.98a4.6 4.6 0 0 0-.076 1.143q.038 1.408-.686 3.808-.724 2.36-1.447 3.199-.305.342-.305.419-.114.152-.342.38-.19.19-.61.496a2.6 2.6 0 0 1-.761.495 3 3 0 0 1-.876.266q-.457.114-.762-.152-.267-.267-.152-.533.114-.23.457-.229.266 0 .19-.19-.076-.343-.419-1.447-.304-1.105-.381-1.828-.037-.535-.571-.19-.381.266-1.257 1.027-1.409 1.219-1.409 1.295-.152.23-.571.495a2.2 2.2 0 0 1-.876.267q-.419 0-.647-.419-.114-.228.076-.61.837-1.637.914-1.865.114-.23 0-.343a.7.7 0 0 1-.191-.076q-.113-.076-.152-.076 0-.038-.114-.077l-.114-.114-.115-.114a1.4 1.4 0 0 0-.076-.19.6.6 0 0 0-.038-.19v-.23q.039-.152.038-.304l.076-.38q.115-1.029.115-1.639t.152-.761q.19-.153.724 0 .456.152.533.114.075-.038.076-.38 0-.382.152-.686.153-.305.343-.305m1.181 2.323q.228-.38 0-.61-.19-.228-.496 0-.266.573.039.953.228.228.457-.343m-2.057 1.257q.228 0 .229-.724-.039-.61-.343-.19a.4.4 0 0 0-.076.114 1.25 1.25 0 0 0-.038.533q.075.267.228.267m-37.627-3.39q-.075.951-.647 2.818-.571 1.866-1.181 1.79a.65.65 0 0 1-.418-.153q-.19-.151-.191-.343 0-.038.495-2.132.495-2.132.724-3.428.267-1.333.304-2.056 0-.19.153-.99.152-.838.19-1.333a1.9 1.9 0 0 0-.152-.952 2.5 2.5 0 0 1-.876.685q-.495.19-.914-.076-.572-.42.457-1.523.952-.914 2.361-3.123t2.095-3.047q.266-.266.419-.457.19-.228.266-.342t.191-.229a.9.9 0 0 1 .304-.19q.572-.267.914-.076.381.152.381.647a.77.77 0 0 1-.152.495q-.115.153-.724.724-.609.57-1.219 1.485-.609.876-.837 1.18-.267.267-.457.534-.153.228-.343.533-.153.266-.305.457-.19.266-.228.38 0 .077.152.381.267 1.371.114 3.085-.114 1.714-.457 3.047a54 54 0 0 1-.419 2.209M150.832 8.5q.153 0 .572.038.456 0 .647.038.19.037.533.076.344.038.495.152.19.076.381.229a.74.74 0 0 1 .305.38q.075.229.076.534 0 .495-.191 1.028-.19.495-.571 1.105l-.457.761q-.114.23-.533.838-.38.609-.724 1.143-.305.533-.342.8 0 .151.685.38.61.19.838.42.228.227.419.837.114.304.228.457a.27.27 0 0 0 .267.076q.153-.075 1.333-1.409 1.218-1.371 1.637-1.98.381-.495.572-.572.228-.114.457.115.228.228.038.533-.419.723-2.171 2.894-1.713 2.133-2.018 2.59-.19.075-.267 1.028-.076.914-.152 1.904-.038.99-.153 1.18a5 5 0 0 1-.152.61 3.5 3.5 0 0 1-.152.571 3.4 3.4 0 0 1-.153.495 1.8 1.8 0 0 1-.228.495q-.114.19-.343.42-.228.228-.381.266-.113.037-.419 0-.76-.114-1.371-.762-.57-.647-.799-1.637a2.2 2.2 0 0 0-.229-.724q-.19-.38-.228-.61 0-.418-.686-.151-.761.418-1.257-.115-.456-.57.039-1.142.151-.19 1.371-.495 1.256-.344 1.561-.572.305-.265.914-.609.609-.342.838-.419.456-.114.457-.876 0-.533-.114-.723-.115-.229-.419-.305-.99-.304-1.333-.533-.343-.266-.343-.8.037-.571.609-1.676.305-.647 1.219-2.17.952-1.524 1.104-1.942.19-.495-.19-.61-.381-.152-.99-.152-.61-.038-.8-.267-.8-.532-.381-.952.153-.19.952-.19m-.495 16.947q.419 0 .724-1.067a6.9 6.9 0 0 0 .228-2.285q0-.342-.038-.495-.038-.19-.152-.19a.16.16 0 0 0-.152 0q-.077 0-.305.152a1.7 1.7 0 0 1-.305.153q-.228.19-.723.533-.495.304-.762.533l.228.457q.039.075.305.8.305.685.533 1.066.229.343.419.343m25.021.38a4 4 0 0 0-.648-.266 3 3 0 0 1-.495-.19q-.456-.23-.266-.648.228-.457.799-.38.343.037.457-.039.153-.343-.837-2.932-.495-1.029-1.562-3.656-1.066-2.628-1.447-3.466-.267-.609-1.028-1.332-.8-.762-.914-1.181t.381-.724a1.3 1.3 0 0 1 .761-.152q.42 0 .648.229 1.904 2.17 3.313 6.321.19.648.838 2.095.647 1.409.914 2.323.532 1.638.838 2.17.342.534.342.838 0 .267-.266.686-.42.532-.762.61-.343.037-1.066-.305m-9.75-7.883q.61-.837 1.371-2.894.115-.38.572-.533.495-.19.799.038.191.153.229.495.038.304.038 2.095v2.399l.343.685q.228.495.228.648.039.114-.114.305-.457.609-.99.228-.61-.457-.8-1.561a22 22 0 0 0-.266-1.22q-.115-.227-.153-.228-.038-.038-.152.115-.267.38-.724 1.37-.419.953-.723 1.41-.267.342-.381.419-.114.075-.419.076-.305 0-.419-.038a1.1 1.1 0 0 1-.267-.305 1.27 1.27 0 0 1-.19-.685q0-.381.152-1.562.343-2.932.343-3.922.038-1.22.381-1.6.267-.305.724-.152.495.114.533.495.037.228-.038 1.257-.077.99-.191 1.485-.19 1.18.114 1.18M135.142 5.873q.152-.304-.685-.114-.38.114-1.219.419l-.914.228q-.265.038-.381.229-.075.152-.114.685 0 .495-.114.876-.153 1.524-.419 1.904-.457.838-.99.495-.648-.419-.267-1.447a1 1 0 0 1 .115-.228q.151-.343.228-1.905.076-1.6.038-2.665 0-.38-.038-.724v-.571a2 2 0 0 0-.038-.42q-.037-.19 0-.266.037-.115 0-.19 0-.076.076-.152l.114-.077a1 1 0 0 1 .229-.114.8.8 0 0 0 .266-.152q.305-.039.686.266l.343.305.495-.38q.151-.153.495-.458.381-.304.647-.457.267-.19.648-.266 1.37-.305 2.056.152.724.457.8 1.752-.039.646 0 .838.038.19-.076.723-.114.495-.153.61-.037.114-.228.57l-.191.572-.19.419.229.38q.228.458.076.724-.115.267-.838.686-.534.304-1.485 1.066t-1.333.952q-.458.305-.914.038-.457-.304-.381-.685.342-.42 1.142-1.028.838-.647 1.448-1.257.609-.648.837-1.333m-2.665-.99q.266.038.799-.153.534-.228 1.181-.495.685-.266.952-.342.342 0 .419-.42a1.36 1.36 0 0 0-.038-.837q-.153-.42-.381-.419-.495-.153-.914 0a1.5 1.5 0 0 0-.533.19 2.1 2.1 0 0 0-.533.457q-.229.267-.419.457-.153.19-.419.572-.228.38-.305.457-.114.076-.114.342.038.268.305.19m-1.295 19.08q.114-.23.571-.877.457-.646.762-1.218.342-.572.38-.914 0-.077-.038-.114-.038-.039-.152 0a1 1 0 0 0-.228.038 6 6 0 0 0-.305.114 2.67 2.67 0 0 1-1.409.305q-.725-.077-.99-.495-.229-.458.342-1.295 1.638-2.172 2.019-4.19-1.219.19-2.514.99-.456.267-.914.191-.419-.075-.533-.419-.076-.342.229-.761.228-.343.876-.61.647-.304 1.523-.61.876-.303 1.257-.494.609-.343 2.437-1.18 1.866-.839 2.818-1.486.458-.457 1.028-.114.61.304.343.838-.076.19-.838.609-.723.42-.914.419-.152.038-.609.38-.418.306-.609.343-.648.153-1.219.914-.532.724-1.257 2.21-.685 1.484-.799 1.751-.648 1.104-.457 1.219.19.076 1.447-.648 2.627-1.638 4.303-2.17.38-.153 1.6-.153 1.485-.038 2.056.305.609.342.762 1.295.305 2.475-.343 4.57-.609 2.094-1.866 4.303-.61 1.104-1.295 1.333-.648.228-2.171-.152-.266-.076-.609-.42-.343-.38-.343-.57 0-.344-.343.38-.075.114-.152.267a12 12 0 0 1-1.447 2.437q-.876 1.18-1.257 1.18-.914-.303-.685-1.18.038-.19.038-.343.038-.152.038-.266l.076-.152a.6.6 0 0 0 .114-.153.5.5 0 0 1 .115-.076.6.6 0 0 1 .152-.038q.038 0 .19-.038.19-.038.267-.038.19.038.609-.8.457-.876.952-2.095.495-1.255.648-1.485.266-.533.419-1.028.19-.495.419-1.257t.418-1.333q.496-1.56.572-1.942.114-.38-.038-.419-.153-.038-.686.229a4.2 4.2 0 0 0-.838.457q-.228.228-.685 1.37-.495 1.258-1.181 2.476-.647 1.18-.99 1.523-.304.343-.723.229-.38-.114-.496-.457-.114-.343.153-.686m4.912 2.627q.153-.037.457.38.305.42.572.344.457-.076.838-.229.38-.19.571-.38.228-.192.457-.572.228-.42.304-.647.115-.267.343-.876.23-.649.343-.952.495-1.257.609-1.905.115-.685.115-1.866 0-1.256-.191-1.599-.152-.228-.266-.267-.115-.038-.572-.038-1.142.039-1.256.229-.153.381-.953 3.047-.761 2.665-1.218 3.732-.571 1.142-.457 1.447.038.152.304.152m-15.461-8.302q.609 0 .609.419-.228.342-.723.876-.496.533-.914.952-.42.382-1.181 1.066-.762.648-.952.838-.648.648-2.361 1.866-.381.343-.914.038-.495-.342-.267-.876.19-.419.305-1.409.152-.99.228-2.399.115-1.409.153-1.714.038-.342 0-.457-.038-.152-.153-.152a.6.6 0 0 0-.266.076 3 3 0 0 0-.343.152 1.2 1.2 0 0 1-.381.153q-2.247 1.104-2.551.647-.038-.495.076-.762.152-.266.343-.38.228-.115.723-.343t.914-.457q.495-.304.99-.533.534-.229.648-.305a.95.95 0 0 0 .266-.343q.152-.266.305-.838.038-.19.076-.685.076-.495.191-.762.114-.304.342-.342.572-.23.914 0 .381.228.114.837-.19.572-.076.648.153.075.838-.229.838-.38 1.295-.723.724-.534 1.066-.19.267.227.038.647-.305.57-2.132 1.561-1.143.61-1.447 1.028-.267.42-.343 1.676a45 45 0 0 1-.229 2.247q-.228 1.675.115 1.714.19 0 .647-.457.38-.42 1.333-1.105.952-.723 1.409-1.18.914-.8 1.295-.8m-14.206-3.692q-.266 0-.914.42-.152.075-.495.266-2.361 1.294-3.123 1.561-.723.228-2.703.495-1.562.229-2.704.381-.648.114-1.638.343l-1.714.343q-.761.152-1.675.304-.877.114-1.714.114a7.5 7.5 0 0 1-1.561-.228q-.229-.076-.534-.724-.151-.342 0-.342.077 0 .153.038.266-.039.761-.343t1.524-.229a15 15 0 0 0 2.856-.38q1.561-.343 2.666-.42a29 29 0 0 0 2.285-.266 25 25 0 0 0 1.409-.266q.495-.153 2.094-.61.61-.152 1.79-.571t2.019-.724q.876-.342.952-.38.723-.458.914.228.19.647-.305.914a.76.76 0 0 1-.343.076M64.421 3.36q-.456 0-.228-.838.114-.19.152-1.142t.267-1.03q.456-.228.8 0 .38.19.38.724.076.457.19.571.153.153 2.057-.952 1.638-1.028 2.97-.533.345.152.8.61.494.456.572.723.114.266.076 1.028 0 .762-.114 1.257-.19.686-1.029 2.247-.838 1.523-1.333 2.018a3.4 3.4 0 0 1-1.6.952q-.951.228-1.599-.114-.342-.153-.418-.114-.077 0-.115.304a1.2 1.2 0 0 1-.076.229q-.076.685-.457.952-.38.228-.8-.152-.304-.42-.114-2.666.19-2.285.076-2.895-.114-1.18-.457-1.18m6.665-.686q0-.456-.076-.609-.039-.153-.267-.38-.381-.382-.762-.344-.38 0-1.104.381-.609.343-2.628 1.676-.038.153.076.952.115.8.153.876.19.19.723-.724.267-.381.838-.837.61-.457 1.067-.61 1.408-.496 1.675.153.19.495.267-.077.038-.19.038-.457m-.381 1.41q.075-.19 0-.191-.076-.038-.38.114-.573.23-.8.343-.192.075-.496.343-.305.228-.723.723l-.8.876-.038.724q0 .533.038.685.038.115.228.229.23.114.343.076.114-.076.572-.533.99-.839 2.056-3.39m2.856 6.13q.114.306-.495.839-.609.496-.876.418-.152 0-.457.153a3.2 3.2 0 0 0-.685.38 8 8 0 0 0-.686.458 85 85 0 0 1-1.028.723q-.457.457-1.333.99-.838.534-1.257.914a5 5 0 0 1-.761.534q-.42.266-.648.533-.38.228-1.295.723-.876.495-1.866 1.18-.8.534-.99.534-.266 0-.533-.228-.228-.267-.228-.495-.076-.42.837-1.029.915-.647 2.247-1.333 1.37-.723 1.79-1.104.8-.609 1.676-1.257.914-.686 1.409-1.028.533-.344 1.79-1.142 1.256-.84 1.6-1.067.799-.533 1.294-.419.495.076.495.724m-4.075 4.19q.38 0 .457.571.114.534.153 2.704 0 .304-.115 1.257-.152 1.18 0 1.333.153.152.838-.61.305-.38 1.143-1.18.838-.838 1.218-1.371.267-.42.457-.571.23-.19.457-.534.648-.838 1.105-.723.99.267-.533 2.094-1.485 1.83-4.037 4.494-1.18 1.18-1.79.99-.457-.19-.571-.533-.077-.38.076-1.295.305-1.942.38-4.493.076-1.715.267-1.905a.61.61 0 0 1 .495-.228M67.544 24.99q.19-.038.838.229.647.266.724.266.99.19 2.665.914t2.285.914q.725.229 2.247.952 1.562.685 2.552.99l.914.267q.647.228 1.066.343.42.151 1.104.228.724.114 1.448.114.876.04 1.18.19.305.191.305.61 0 .876-1.257.876-.876 0-3.351-.647-2.437-.648-3.123-.99-.8-.457-2.514-1.067-1.713-.608-2.323-.914a16 16 0 0 0-1.942-.8q-1.104-.419-2.742-.914a55 55 0 0 1-2.132-.723q-.19-.076-1.067-.229-.837-.152-1.066-.266-.342-.267-.647.076a6.5 6.5 0 0 0-.572.914q-.266.571-.457.685-.495.762-1.333 1.752-.837.953-1.332 1.295-.267.153-.724.61a7 7 0 0 1-1.219.875q-.723.457-1.028.457-.838.039-.647-.761.152-.724.647-.914a.47.47 0 0 1 .267 0q.38-.04.57-.19.42-.267 1.638-1.524 1.257-1.257 1.448-1.6.265-.457.495-.723 1.218-1.752 2.78-5.675.228-.761.952-.57.533.037.647.19.114.113-.114.495-.228.19-.419.609-.153.38-.343.952-.19.533-.304.8-.305.723-.229.762.114.037.99.228.915.19 1.447.38.572.153.914.344.458.19.762.19m-26.01-14.128q.457 0 .609.419.152.42.152 1.409-.037.838.038 1.104.076.23.381.381.23.152 1.371.419 1.18.228 1.562.229.419 0 2.247.647t2.818 1.142q.38.19.952.496 1.028.533 1.333.761t.304.533q0 .267-.38.914-.23.343-.8.19-.571-.15-.724-.418-1.56-1.144-3.77-1.942-2.21-.839-4.303-1.029-.915-.075-1.029.076-.152.382-.152 1.6 0 1.219-.114 1.79-.114.686-.267 2.513a91 91 0 0 1-.266 3.352q-.153 1.523-.42 2.018a.93.93 0 0 1-.685.571q-.457.114-.685-.266-.115-.267-.267-1.257a10.7 10.7 0 0 1-.038-2.018q.076-1.066.495-1.143.153 0 .19-.267.115-.609.19-2.056.115-1.448.23-2.018.114-.114.076-1.6 0-1.523-.077-3.313-.075-1.828-.114-1.904-.229.152-.571.685-.343.535-.724 1.18-.38.61-.723 1.258a23 23 0 0 1-.61 1.028q-.227.38-.266.343a328 328 0 0 0-2.361 3.998q-.915 2.019-1.371 2.361-.458.306-.8.229-.305-.114-.305-.495 0-.38.343-.952.343-.915.8-1.79a53 53 0 0 1 1.333-2.285q.877-1.41 1.066-1.752.227-.457 1.676-3.008a395 395 0 0 0 2.17-3.923q0-.343-.761 0-.038.038-.572.267a7 7 0 0 0-.723.342l-.762.305q-.532.228-.876.343-.305.114-.837.304-.495.153-.876.229-.343.075-.762.152-.42.039-.8.038a4 4 0 0 1-.61-.114q-.38-.38-.456-.838-.037-.494.38-.8.42-.304 1.258-.076 1.218.114 2.399-.57a18 18 0 0 0 3.846-1.6q1.751-.99 3.999-2.552.19-.228.61-.419.456-.19.837-.076.38.075.38.533-.075.381-.799 1.028-.723.649-.876.952-.267.343-.914 1.029t-1.028 1.218a7 7 0 0 0-.686 1.219q-.456.876.115.876m-26.01-6.551q.19-.19.418-.152.23 0 .8.228.457.19 1.6.19 1.18-.037 1.675-.228.572-.266.914.038.343.306.305.838-.114.457-1.866.724-1.714.266-3.085.038-.342-.038-.457-.114-.076-.076-.228-.42-.23-.57-.267-.76 0-.192.19-.382m.228 4.875q.838 0 2.666-.8 1.828-.837 2.247-1.295.038-.151.533-.495.38-.304.571-.304.19-.038.419.19.344.304.152.838-.19.495-.761.8-2.285 1.637-4.532 2.285-.914.266-1.257.304-.304 0-.571-.152-.344-.267-.152-.8.228-.57.685-.571M8.44 11.66q0 .495-.571.648-.571.152-.762-.381-.495-.724-1.523-.724-.61.076-.952-.266-.343-.38-.267-.8.115-.457.61-.571.456-.114 1.218.076.8.191 1.257.457.38.267.685.761.306.458.305.8m8.607 2.59q-.61.075-.571-.533.038-.762.609-1.067a.43.43 0 0 1 .305-.038q.57 0 1.675-.57 1.105-.61 1.828-1.334.42-.419.572-.457.151-.076.418.114.305.23.153.724-.153.458-.648.914-2.475 2.019-4.341 2.247m.19 1.638q0-.457.115-.61.152-.152.647-.304.61-.23 1.561-1.029.762-.647 1.067-.761a.505.505 0 0 1 .609.114q.343.304-.19.952-.457.61-1.486 1.409-1.027.8-1.485.876-.38.075-.61-.076-.228-.19-.228-.572M5.47 19.62q0 .114.495.342.876.457 1.066 1.447.19.952-.38 2.095-.077.267-.915 1.257-.8.952-.876 1.104 0 .153.305.229.305.037 1.37.114 2.286.153 3.276.343 1.714.229 6.817.304 5.103.038 7.769-.304.305-.114 1.142-.153.876-.038 1.219-.152.952-.228 1.18-.228.267 0 .42.228.265.42 0 .952-.23.495-.724.571-.039 0-1.6.19-1.56.153-1.904.23-1.675.265-7.16.19-5.445-.076-7.844-.381-4.722-.762-6.817.038-.876.305-1.105.19-.38-.19-.38-.647-.039-.533 1.104-1.18 1.143-.648 1.333-.876.229-.23.38-.343l.191-.19a.8.8 0 0 0 .19-.153q.115-.153.305-.419.114-.153.419-.533.343-.38.457-.571.152-.19.305-.534.152-.38.19-.723 0-.419-.305-.61-.266-.19-1.066-.38-.761-.19-.8-.724-.038-.532.648-1.104.38-.343.8-1.028.456-.686.342-.838-.075-.115-.571-.038-.876.114-.876-.572-.075-.38.457-.685a2.6 2.6 0 0 1 1.143-.343q.61-.075 1.028.076.876.458.152 2.019-.151.495-.61.99-.418.494-.57.8m14.014-1.98v.494q.038.076.229 0 1.18-.304 1.713-.19.572.114 1.029.8.38.495.38.952.115.8-.533 2.17-.647 1.372-1.637 2.247-.953.876-1.676.381-.19-.267-.838-.038-.61.19-.647-.152-.039-.076-.114-.952a40 40 0 0 1-.038-1.752q.038-.876.152-.838.19-.57.533-1.98.343-1.447.38-1.524a.7.7 0 0 1 .191-.418q.305-.305.572-.039.304.267.304.838m1.79 2.018q-.724-.457-1.561.533-.8.953-.724 1.98-.038.495-.038.648.037.114.229.266.342.267.533.19.228-.114.609-.685 1.56-2.437.952-2.932m251.14 35.535q.165-.729.828-1.324.661-.63 1.423-.629.464 0 .926.298.464.264.695.695.1.232.1 1.092.033.828-.066 1.225-.232.86-1.424 1.754-.397.266-.562.33-.133.067-.497.067-.793 0-1.026-.165-.231-.2-.529-.96a2.2 2.2 0 0 1-.166-.86 8 8 0 0 1 .066-.696q.067-.231.232-.827m1.489 2.217a.6.6 0 0 1 .166.066 1 1 0 0 0 .199.034q.099-.034.264-.232.166-.199.364-.596.365-.727.464-.96.099-.264.099-.496.033-.265-.165-.563-.232-.363-1.093.133-.33.198-.43.397-.099.198-.265.96-.066.33-.132.53a2 2 0 0 0-.033.363.4.4 0 0 1 0 .232q-.033.066.066.1.132.032.099.065h.166a3 3 0 0 1 .231-.033m-13.669-9.896a.73.73 0 0 1-.232.53q-.199.198-1.324.993-.827.563-1.125 2.019-.066.231.066.198.132 0 .298-.165.066-.066.662-.464.596-.43.827-.695.398-.496.563-.496.298 0 .397.463.132.43-.132.596-.166.066-.397.397-.2.33-.166.397.066.066.298.066t.364.067q.166.033.166.198 0 .265.033.43.066.133-.067.43a4 4 0 0 1-.165.398q-.033.132-.199.397-.165.265-.231.364-.067.1-.232.331-.166.2-.199.232.033.1-.231.43-.232.331-.563.728-.331.398-.397.563.033.033.596-.232 1.49-.761 2.052-.298.463.365-.364 1.159-.894.894-.795 1.026.265.264 1.059.066.663-.232.927.166.266.396-.099.827-.894.63-1.49.927a3.6 3.6 0 0 0-.562.364.64.64 0 0 0-.265.397 1.5 1.5 0 0 0-.066.397q0 .165.033.695.033.497.033.86.033 1.291-.165 3.906-.166 2.582-.133 4.005 0 .927-.033 1.158a1.1 1.1 0 0 1-.132.397q-.265.465-1.225.1-.827-.331-.629-.728.066-.133.331-.265.364-.132.397-.265.232-4.469.232-7.314a12 12 0 0 1 0-1.258q.033-.497-.033-.728a6 6 0 0 0-.099-.364q-.034-.133-.199-.1-.166.033-.331.1-.133.066-.43.165-.265.099-.53.133a2.7 2.7 0 0 0-.728.297q-.331.165-.596.265-.264.2-.463.1a3 3 0 0 1-.298-.166 2 2 0 0 1-.165-.331q-.1-.165.496-.629.629-.463.861-.496.596-.165 1.886-.762.298-.132.364-.198.1-.1.1-.298 0-.264-.133-.629-.099-.397-.198-.496-.1-.1-.894.231-1.522.663-1.953.232-.265-.298-.165-.53.132-.232.86-.76.1-.067.232-.2.496-.363.563-.463.066-.099.033-.298a5 5 0 0 1-.067-.86v-.397q0-.2-.033-.331a.5.5 0 0 0-.033-.199q-.033-.066-.165-.033-.132 0-.364.132-.795.398-1.192 0-.264-.297-.132-.562t.728-.728q.629-.465.827-.695.199-.265.464-.828.464-1.026.132-1.026-.165 0-.96.397-.76.398-1.092.662a1.7 1.7 0 0 1-.927.331q-.397.033-.496.033-.099-.033-.166-.198-.165-.496.795-1.159.363-.297.794-.53.464-.264 1.059-.562.629-.297.927-.43.298-.2.364-.298.099-.1.132-.331.068-.265 0-.662-.033-.43-.099-.463t-.662.099q-.562.132-1.026.232-.463.066-.596-.034-.363-.1-.529.034-.464.264-.761-.034-.265-.33-.398-.926-.099-.431-.595-1.456-.464-1.026-.728-1.39-.166-.233-.199-.762-.033-.563.132-.695.299-.298.728-.132.464.165.596.629.133.429.199.463.066 0 .231-.364.464-1.158 4.369-2.648.299-.166 2.913-.364.331.067.662.166.364.065.794.231.464.166.662.397.232.232.331.596.1.365-.232.794-.562.927-1.489 1.92-.894.96-1.721 1.49-.231.099-.728.463-.464.33-.695.463-.331.132-.364.265 0 .133.132.364.166.232.166.43.033.133.066.232l.066.132a.4.4 0 0 1 .099.067h.133l.132-.067a.5.5 0 0 0 .132-.099 2 2 0 0 1 .166-.1q.099-.065.199-.165.132-.099.231-.165.628-.563.96-.331.232.133.232.43m-1.225-5.593q0 .165-.463 1.059-.43.893-.497.893-.1 0-.629.696-.53.695-.529.794-.033.264.96-.364 1.356-.828 1.39-.795.397-.132 1.125-.926.133-.166.298-.364l.298-.298.198-.265a1 1 0 0 0 .166-.199l.066-.198q.066-.1.033-.166a.3.3 0 0 0-.033-.132.32.32 0 0 0-.132-.166.9.9 0 0 0-.199-.198q-.198-.066-.86-.1-.63-.032-.861.034-.331.065-.331.695m-1.224-.133q-.1-.165-.464-.099a1.4 1.4 0 0 0-.662.265q-.33.232-.265.43.033.132-.066.629-.099.464-.132.794-.033.298.099.464.165.099.662-.662.728-1.259.828-1.82m-3.906 1.92q0 .033-.298.397-.265.33-.198.464 0 .396.264 1.224.265.794.398.794.132 0 .463-.264.364-.299.563-.563l.264-.331-.132-.629q-.066-.198-.099-.96-.034-.795-.166-.926-.1-.001-.596.364-.463.33-.463.43m4.832 9.532q.464-.695-.132-.695-.696-.132-1.026.662-.298.761.033 1.423.133.132.331-.132a5 5 0 0 0 .463-.728q.265-.464.331-.53m.728 3.64q.033-.264-.132-.231-.231.033-.265.265a.14.14 0 0 0 0 .132q.066.099.133.133a.22.22 0 0 0 .165-.067.7.7 0 0 0 .099-.231m0 1.788q.364-.1.067-.364-.298-.231-.398.1-.099.165 0 .264.133.099.331 0m-17.475-6.653q-.265.232-1.059.596-.762.364-1.258.497-.199 0-.463-.232-.265-.265-.265-.43a.8.8 0 0 1 .165-.331q.133-.133.365-.265.264-.133.364-.232a13 13 0 0 1 1.125-.562q.728-.332 1.158-.596l.828-.464.198-.827q.2-.927.232-1.191a.61.61 0 0 1 .364-.464q.629-.264.96.629.066.232.132.364.1.1.232.1.166-.034.265-.067t.331-.165q.264-.166.397-.232.264-.166.563-.199t.397.1q.264.231-.066.695-.299.43-.993.926-.828.53-1.126.762a1.6 1.6 0 0 0-.496.53q-.165.297-.133.463.034.165.1.794t.066 1.258v.563a4 4 0 0 0-.033.43q0 .132.033.33.066.165.165.133.1-.033.298-.066.894-.497.265.629a5 5 0 0 1-.165.297q-.365.729-.497 1.06-.132.33-.165.53-.033.164-.033.827.033.628-.034 1.357-.066.628-.066 1.688 0 1.059-.099 1.688-.1.595-.43 1.026-.166.232-.431.165a1.7 1.7 0 0 1-.496-.298 10 10 0 0 0-.496-.397q-.265-.232-.398-.265-.53-.264-.993-1.29-.132-.365-.529-.696-.364-.33-.497-.53a1 1 0 0 1-.099-.396q.033-.165.166-.166.264-.198.695-.662.464-.496 1.026-1.059.562-.596.728-.794l.761-.762-.033-2.316q0-2.317-.033-2.549-.165-.562-.993.066m.066 7.58q-.198.165-.298.397a.8.8 0 0 1-.165.298q-.365.33.265 1.357.695 1.092.86.662.066-.165.232-2.25 0-1.392-.033-1.424-.066-.033-.331.33-.232.331-.53.63m-31.906-2.882a.8.8 0 0 1 .232.596q.033.364-.166.761-.199.398-.43.795-.232.364-.497.76-.231.365-.297.597 0 .099.397.165 1.29.199 1.026 1.754a6.9 6.9 0 0 1-.96 2.45l-.033.033q-.099.364-.033.43.1.033.695.033h.331q.96-.066 3.475.232 2.516.297 2.747.298.397 0 .497-.067.132-.066.132-.364 0-.165.265-.695.298-.53.397-.53.231-.065.463-.33.265-.299.497-.728.264-.464.397-.63.595-.76.397-.926a4 4 0 0 0-.397-.033q-.133-.033-.463.033l-.497.1q-.132.032-.463.132-.331.099-.431.132-1.224.265-1.026-.629.166-.562 1.324-.827.066-.033.199-.066 1.159-.398 1.423-.695.298-.332.364-1.49l.033-.86a5 5 0 0 0-.893.231q-.562.232-.828.067-.264-.2-.165-.762.132-.662.695-.662.264 0 .629-.132.397-.133.496-.265.099-.133.166-.993.033-.794.198-1.158.165-.398.563-.795l.331.166q.33.165.364.33.066.166-.099.63a4 4 0 0 0-.166.794q0 .364.132.43.1.033.53-.165.463-.232.53-.331.033-.032.198-.596.2-.596.298-.695.166-.232.132-.364 0-.132-.231-.265a.69.69 0 0 1-.364-.463q-.066-.33 0-1.125.1-1.457-.067-3.244-.099-1.29-.099-1.721.033-.43.232-.794.132-.232.463-.331.331-.133 1.556-.364 1.688-.2 1.853.198.464.53-.066 1.622-.595 1.191-1.92 2.317l-.463.43-.199.86q-.231 1.291.1 1.358.264-.068.927-.795.695-.727.794-1.125.231-.264.695-.133.463.133.331.53-.132.694-1.423 2.052-.662.662-.762 1.092-.1.398.1.63.43.562-.232 1.124-.43.398-.629.729-.165.33-.43 1.191-.265 1.125-.166 1.125.1.1.662-.364a7 7 0 0 0 1.093-1.059q.496-.629.397-.86 0-.497.265-.662.264-.165.628.132.232.165.199.695 0 .496-.232.993-.297.53-1.125 1.324-.827.795-1.622 1.258-1.026.629-1.489 1.158-.464.53-.861 1.49-.496 1.224-2.052 3.243-.33.43-.265.497.133.066.629.132t1.126.132q.662.033.926.1.96.198 3.906.132 2.978-.1 3.773-.298.629-.165 1.688-.364a54 54 0 0 0 1.655-.33q.595-.167 1.357-.53a5.7 5.7 0 0 0 1.423-.927q.298-.265.563-.232.198.033.231.1.067.032.1.231.032.364-.232.695-.266.331-1.026.86a6 6 0 0 1-1.092.596 7 7 0 0 1-.96.331q-.397.1-1.92.497-1.92.463-4.832.629-2.913.132-5.428-.166a297 297 0 0 0-4.468-.364q-3.012-.264-4.336-.43a9 9 0 0 0-1.324.033 9 9 0 0 1-1.324.033q-1.026 0-1.291.166-.793.496-1.026.595-.231.099-.628.133-.562.033-.795-.199-.364-.364-.198-.728.198-.397.86-.629.199-.099.563-.231.397-.166.596-.232.198-.1.463-.265.265-.198.463-.397.497-.596.927-1.49.463-.893.364-1.489l-.927-.066q-.662-.033-.827-.066-.132-.034-.199-.199-.232-.43.398-1.125.297-.364.893-1.258.629-.894.629-1.026 0-.33-1.092-.364-.563-.033-.695-.066a.52.52 0 0 1-.265-.199.7.7 0 0 1-.132-.496.62.62 0 0 1 .298-.43q.132-.233 1.423-.133t1.456.43m14.993-10.79q-.1-.198-.794-.066-.696.1-.761.331-.067.1 0 .695.033.563.165.596.165 0 .695-.562.761-.762.695-.993m-3.409 10.625q-.033-.33-.43-.133-.397.199-.464 1.556-.066.927.1.927a.3.3 0 0 0 .099-.033q.1-.066.397-1.093.331-1.026.298-1.224m-2.714-11.518q1.026.264 1.39.794.397.53.199 1.092-.166.563-.728 1.126a4.8 4.8 0 0 1-1.291.96q-.232.132-.497.264-.33.165-.397.331-.066.133-.132.894-.033.165-.033.265-.233 2.45.033 2.449.365-.298 1.059-1.456.695-1.192 1.026-1.423.166-.034.298.132a.84.84 0 0 1 .198.397.7.7 0 0 1-.066.43q-.1.198-.761 1.225-.496.993-1.192 1.853-.662.861-1.29.795-.43 0-.53-.232-.099-.232-.099-1.191-.033-.398.066-1.49.132-1.092.132-1.886 0-.828-.264-1.026-.2-.2-.199-.298 0-.133.199-.497.165-.297.165-.53.033-.263.033-1.125l-.033-1.224.298-.298q.299-.33 1.125-.397.828-.066 1.291.066m.397 1.886q.133-.363-.331-.53a1.67 1.67 0 0 0-.926-.065q-.298.032-.398.695-.066.33.034.43.099.066.463-.066 1.092-.33 1.158-.464m-11.286 3.84q.198-.2.331-.232.132-.066.199-.033.099.033.331.132.264.1.529.166.894.33 1.125.629.364.397.298.728-.066.299-.43.33-.364.035-.894-.198-.231-.132-.794-.265-.563-.165-.827-.364-.43-.363.132-.893m19.792 13.603q0 .199-.231.463-.232.265-.431.265-.397 0-2.614-1.986a6.2 6.2 0 0 0-1.291-.927q-.563-.364-.894-.562-.33-.232-.463-.397-.132-.2-.066-.331.066-.133.298-.265.496-.33 1.125-.066.596.297 1.886 1.39 1.325 1.059 1.556 1.191 1.125.828 1.125 1.225m-30.052-7.316q.397.298.529.298.034-.066.762.298.761.33 1.621.761.894.43 1.093.497.43.099.496.463.1.364-.232.728-.53.63-1.224-.033-.398-.398-1.655-.96-1.224-.595-1.456-.496-.033 0-.067.033a.5.5 0 0 1-.033.132q0 .067-.033.166a2 2 0 0 0-.066.33 4 4 0 0 1-.099.431 8 8 0 0 1-.133.596 8 8 0 0 0-.165.761q-.827 3.343-1.754 3.906-.332.264-.695.198-.894-.066-1.556-1.258-.562-.826-.298-1.191.199-.232.563.298.496.927 1.059.893.563-.066.861-1.026.662-1.655.992-3.839.133-.728.034-.86.033-.067-.662-.265a35 35 0 0 0-1.788-.53q-1.059-.33-1.224-.364-.166-.066-.265-.33a.66.66 0 0 1 .033-.464q.332-.33.894-.298.596.033 1.026.198.463.165 1.059.398.595.231.927.264.198 0 .231-.033.066-.033.1-.231.165-.729.231-2.516.099-1.82-.033-2.416-.099-.23-.331-.199-.198.034-.86.398a7 7 0 0 0-.464.198q-.363.166-.463.232-.067.033-.364.166l-.397.132q-.067 0-.331.066-.232.033-.331 0a1 1 0 0 0-.298-.033.74.74 0 0 1-.331-.132 3 3 0 0 0-.265-.232 2.3 2.3 0 0 1-.331-.331q-.397-.43-.496-1.523-.1-1.124.231-1.688a.66.66 0 0 1 .563-.264q.364 0 .629.33.264.3 0 .63-.133.264-.099.728.033.463.231.893.2.43.364.331.596-.032 1.721-.662 1.159-.629 1.821-.629.43.034.595.265.166.2.331.96.133.397.166 1.06.033.628 0 1.124-.033.464-.132 1.324-.067.86-.067 1.093zm-20.653-3.276q.166.033.331 0a.8.8 0 0 1 .331 0q.166.033.265.198.264.199.364.563.099.33.198 1.357.166 1.72.364 1.72.133 0 .497-1.224.662-1.192 1.522-1.125.332-.066.993.563.695.596.762.926.066.199.231.563.2.364.298.695.1.299.166.662.132.662.264.728.133.033.497-.43.662-.96.927-.563.165.199 0 .662-.066.099-.497.828-.43.695-.529.794-.464.563-.464 1.655 0 .562-.198 1.49-.166.925-.331 1.29-.199.364-.563.497a.64.64 0 0 1-.629-.133q-.165-.297-.132-.43.033-.165.198-.43.2-.266.232-.398a4 4 0 0 0 .099-.662q.033-.397-.033-.43-.033-.033-.86.761-1.159 1.126-1.49 1.126-.033 0-.298-.199-.231-.231-.297-.198-.1.033-.133.562.034.828-.728 1.06-.298 0-.397-.332-.066-.33-.066-1.853-.033-3.011-.1-3.939-.033-.926-.298-2.548-.198-1.29-.33-1.721-.133-.43-.365-.43-.165 0-.728.529-.53.53-.86.993-.595.96-.828 1.224-.198.232-.43.232-.43 0-.43-.562 0-.233.331-.861.33-.63.695-1.026.198-.166.761-1.423.595-1.29 1.125-2.483.562-1.224.762-1.224a2 2 0 0 0 .231-.166l.232-.231a.8.8 0 0 1 .298-.1.38.38 0 0 1 .397.1q.165.099.099.562 0 .331-.397.993-.364.63-.728 1.192-.364.529-.331.596m4.336 3.177q-.729-.464-1.092.199a3 3 0 0 0-.265.364q-.1.165-.199.364l-.165.33q-.033.1-.1.332a9 9 0 0 1-.099.33 5 5 0 0 0-.099.398 2 2 0 0 1-.066.364q0 .066-.067.43-.033.33-.066.43.266.033.96-.53.729-.561 1.026-.661.728-.397.861-.53.132-.165 0-.53-.299-.96-.629-1.29m.827 4.27q.1-.3.1-.663.032-.397-.199-.463-.299.066-.927.563-.629.495-.695.53-1.39 1.158-1.357 1.82 0 .96.199.96.198 0 1.489-1.225 1.291-1.224 1.39-1.523m-13.834-12.974q0 .465-.265.761-.264.298-.662.033-.298-.198-1.39-.165-1.82.033-1.82-.463 0-.299.463-.762.198-.199.298-.231.099-.066.364 0 .397.066 1.522.066.994 0 1.225.132.265.133.265.63m-14.298 1.589q.529-.364.728-.397.231-.067.331.165a.56.56 0 0 1 0 .53q-.132.231-.728.761a7.4 7.4 0 0 0-.762.827q-.396.53-.86 1.225-.464.662-.629.894-.166.231-.397.728a3.3 3.3 0 0 1-.43.794q-.199.298-.629.53-.662.33-.861-.066-.33-.63.828-1.92.33-.365 1.324-1.953a7.05 7.05 0 0 1 2.085-2.118m-.1 5.99a.8.8 0 0 1 .497.53q.132.398-.132.894-.199-.232-.398 2.648-.099 1.125-.033 1.687.232.497-.198 1.159-.398.662-.894.463-.496-.132-.298-1.092.1-.397.166-1.192.099-.827.165-1.92a48 48 0 0 1 .099-1.422q.1-.43 0-.43-.099 0-.628.727-.497.696-.629.993-.199.63-.629 1.06-.43.397-.993.463a.64.64 0 0 1-.331-.265.7.7 0 0 1-.066-.43q.165-.398 1.158-1.721 1.026-1.358 1.258-1.754.496-.728 1.191-1.655.729-.927 1.192-1.589.76-1.224.96-1.357.463-.264.728.066.264.331-.066.761-.827 1.623-1.589 2.483-.76.894-.53.894m13.438-.463q0-1.39-.199-1.39-.066 0-.297.132-.2.1-1.324.365-1.092.231-1.424.231-.595 0-.728-.463-.132-.465.398-.761.297-.232.463-.265.165-.066.794-.066.663.065 1.39-.232.729-.33 1.192-.695.132-.232.629-.331.496-.099.629-.133.495-.231.695.166.198.398-.166.86l-.298.298a3 3 0 0 0-.165.298 5 5 0 0 0-.1.331q0 .1-.066.563-.066.43-.165.86-.067.596-.232 3.41-.165 2.78-.165 3.607.033 1.224-.133 1.589-.33.728-.86.827a1.45 1.45 0 0 1-.993-.232q-.463-.33-1.092-.794-.63-.495-.927-.629a3 3 0 0 0-.43-.198 2 2 0 0 1-.365-.166 1.3 1.3 0 0 0-.231-.165.9.9 0 0 1-.199-.298 6 6 0 0 1-.132-.464q-.132-.397.397-.661.53-.266.761.066 1.689 1.357 2.516 1.754.23.066.331-.1.132-.198.099-.529 0-1.225.165-3.409.2-2.184.232-3.376m-36.243-7.549q.099-.166.166-.628.099-.464.264-.629.199-.198.728 0 .53.233.331.96-.066.066-.132 1.092a517 517 0 0 1-.165 2.383 61 61 0 0 1-.166 1.953q-.198.496-.298 1.953-.066 1.456-.132 3.31a66 66 0 0 1-.066 2.316q-.067.1-.1 2.152 0 1.588-.099 2.118-.066.53-.298.662-.199.1-.463.1a.54.54 0 0 1-.364-.2q-.2-.1-.166-2.018.033-1.953.133-2.284.066-.33.099-3.64.066-3.344.199-3.575.099-.199.132-1.721.066-1.522.132-2.88.067-1.39.265-1.423m3.078 1.424q1.059-.63 2.052-1.026.993-.43 1.622-.728.1-.066.794-.298.729-.231.828-.298.397-.297 1.688-.397 1.323-.099 2.151.132 1.06.397 1.655 2.086.596 1.688.463 3.673.033 1.49.133 2.02.198 1.025.198 3.706.033 2.68-.132 3.707a33 33 0 0 0-.265 1.655q-.231 1.655-.894 1.688-.363.032-.728-.364-.33-.397-.827-1.39-.464-.894-.563-1.192-.066-.33.133-.43.396-.231.86.728.595 1.423.828-.463 0-.165.033-.53.033-.397.066-.496 0-.596.066-.927.099-.53 0-2.68-.099-2.152-.232-2.88-.165-.861-.165-2.416 0-1.424-.099-2.052a3.1 3.1 0 0 0-.398-1.159q-.694-1.191-2.416-1.158-.464 0-1.224.297-.728.266-1.721.729-.96.43-1.291.562a12 12 0 0 0-2.88 1.622q-.596.464-.893 0-.496-.76 1.158-1.721m6.289 1.655q.596.63-1.126 1.754-.264.298-1.588.728t-1.556.563q-.695.33-1.456.265-.728-.099-.761-.795.033-.396 1.423-.728.33-.099 1.125-.33.795-.233 1.225-.365.464-.166.993-.397.529-.232.794-.497.033 0 .132-.099.133-.1.166-.1a.4.4 0 0 1 .132-.065q.1-.066.133-.066.066 0 .165.033a1 1 0 0 1 .199.099m-5.495 7.149q0-1.59.067-2.085.099-.497.43-.761.198-.165.827-.1l-.033.464v.165a.6.6 0 0 1-.033.199v.298q-.033.53 0 .628.066.068.43-.165.299-.231.894-.43a5.4 5.4 0 0 1 1.125-.298q.696-.132 1.06.397.397.53.33 1.29-.066.729-.529 1.192-.364.364-1.523 1.92-.231.298-.827.629-.562.33-1.191.463-.63.1-1.027-.298-.496-.596-.165-1.224.165-.298.165-2.284m1.457 2.151a.3.3 0 0 0 .198 0q.133-.033.331-.231.232-.2.364-.364.166-.165.364-.398.2-.231.265-.297.067-.1.265-.365a3.4 3.4 0 0 0 .298-.53.9.9 0 0 0 .132-.43q.033-.231 0-.297t-.198-.1q-.53 0-1.39.96-.861.96-.695 1.655.066.298.066.397m-25.319-6.587q-.066.133-.198.364a7 7 0 0 1-.232.497q-.033.098 0 .165.033.033.033.1.033.065.166.132a.9.9 0 0 1 .231.165q.1.066.331.232.232.132.431.265 1.423.993 5.328 2.813.265.132 1.159.563.893.43 1.357.661.497.2 1.257.53.794.298 1.49.497.695.198 1.39.297 1.456.199 2.251.596.33.133.331.464 0 .33-.298.562-.266.2-.662.133-.795.066-3.343-.695a32 32 0 0 1-2.681-.96 78 78 0 0 1-3.211-1.424 115 115 0 0 0-2.614-1.257q-.332-.132-1.754-.894-1.39-.794-2.052-1.026-.133-.033-.398.232a10 10 0 0 0-.562.629q-.298.396-.563.761-.264.364-.563.794l-.397.53q-.596.827-2.747 3.442a1 1 0 0 1-.165.199 1.4 1.4 0 0 0-.133.198.7.7 0 0 1-.132.166.7.7 0 0 1-.166.132 1 1 0 0 1-.132.1q-.066.065-.132.066h-.166a.35.35 0 0 1-.198-.067 1 1 0 0 0-.166-.132q-.397-.331-.232-.794.166-.497.464-.894.297-.397.496-.53a6.7 6.7 0 0 0 1.49-1.29q.728-.828 1.787-2.317a72 72 0 0 1 1.191-1.688q.894-1.16 1.688-3.045.828-1.888.828-3.244-.033-1.191.529-1.29.43-.067.662.661 0 .1.033.199.233 1.787-1.026 4.402M88.756 51.55a.3.3 0 0 1 .033.1q0 .133-.232.265-.264.231-.96 1.589-.695 1.323-.926 1.555a52 52 0 0 0-1.953 2.88q-.729 1.224-1.457 2.317-.43.629-.43.893 0 .132.066.232.1.067.1.165 0 .199-.43.762-.43.529-.464.629-.232.43-.794.43a.76.76 0 0 1-.43-.133.32.32 0 0 1-.133-.264v-.232q.033-.33.695-1.688t.96-1.688q.265-.364 1.357-2.151 1.126-1.788 1.423-2.085.266-.266.993-1.688.761-1.457.761-1.854-.033-.397-.463-.397-.265 0-.927.265-.629.264-.728.264-.231.133-1.158.43-.894.3-1.159.299-.397 0-.397-.464 0-.363.166-.695.132-.199.496-.397.397-.232.596-.232h.033q1.622-.33 4.733-1.787a.7.7 0 0 0 .43-.198q.198-.199.265-.365.066-.165.132-.496.1-.298.166-.397.198-.762 1.49-2.648.165-.397.628-.397.364 0 .563.298.264.33.264.463 0 .132-.43.629-.33.365-.728 1.026-.397.662-.397.927 0 .132.165.132.265 0 1.159-.43.496-.2 2.085-.993 1.589-.828 2.747-1.192.198-.066.298-.066.297 0 .563.199.264.165.264.364 0 .132-.132.265-.232.429-1.953 1.026a4.5 4.5 0 0 0-.596.231q-.33.166-.53.232-.165 0-.264.165-.264.265-1.357.795-1.059.53-2.184.86-.696.233-1.357.927-.662.662-.662 1.192zm3.773 14.895q-.33-.729-.331-1.159 0-.264.132-.264t.397.33q.265.3.364.63.2.562.43.562.3 0 .431-1.125.132-1.026.132-2.615v-.232q0-.562-.099-.662-.563.133-1.886.696-1.291.562-2.02.595-.43 0-.562.133-.099.066-.166.827a77 77 0 0 1-.198 3.078 1.1 1.1 0 0 1-.298.596q-.231.231-.496.232a.57.57 0 0 1-.365-.133q-.364-.297-.364-.893l.133-1.026q.132-.53.364-3.641t.364-3.972q.132-.662.198-2.88.067-2.25.332-2.912.099-.397.794-.397.464 0 .662.198.198.134.198.331 0 .233-.264.795-.232.529-.232.695v.033a1 1 0 0 0-.033.232q0 .264.165.264.233 0 .927-.695.662-.629 1.026-.86.397-.265 1.125-.464.464-.099.762-.099.43 0 .662.265.264.231.53.86.198.464.23.828.034.365.034 1.887l.033 2.15q.53.266.629.365a.31.31 0 0 1 .132.265q0 .264-.397.86-.297.465-.397.662-.066.199-.066.629 0 .53-.066.927a7 7 0 0 0-.034.496 95 95 0 0 1-.264 3.773q0 .662-.067.86a1.1 1.1 0 0 1-.198.398q-.298.397-.695.397-.298 0-.53-.265l-.43-.43q-.398-.43-.728-1.125m1.555-10.161q.133-.165.133-.497 0-.132-.033-.496-.066-.761-.166-.993-.099-.265-.33-.265-.332 0-1.126.63l-.132.132q-.2.231-.795.728-.563.463-.761.662a.9.9 0 0 1-.43.33q-.365.133-.464.828v.298q0 .496.397.496.53 0 1.556-.53 1.06-.528 1.688-.992.364-.165.463-.331m.067 1.986q-.067-.232-.265-.232-.298 0-1.324.629-1.06.63-1.556.794-1.191.331-1.29.728-.067.232-.067.828 0 .695.232.695.695 0 2.118-.563 1.423-.596 2.119-1.125.099-.066.099-.828 0-.695-.066-.926M62.31 44.998q-.397 0-.198-.728.099-.166.132-.993.034-.828.232-.894.397-.198.695 0 .33.165.33.63.067.397.166.495.133.133 1.788-.827 1.422-.894 2.581-.463.298.132.695.53.43.397.497.628.099.232.066.894 0 .662-.1 1.092-.165.596-.893 1.953-.729 1.323-1.159 1.754a2.97 2.97 0 0 1-1.39.827q-.826.2-1.39-.099-.297-.132-.364-.1-.066 0-.099.265a1 1 0 0 1-.066.2q-.066.594-.397.827-.332.198-.695-.133-.265-.364-.1-2.317.165-1.986.067-2.515-.1-1.026-.398-1.026m5.792-.596q0-.397-.066-.53-.034-.132-.231-.33-.332-.331-.663-.298-.33 0-.96.33-.529.3-2.283 1.457-.033.132.066.827.099.696.133.762.165.165.628-.63.233-.33.729-.727.53-.398.926-.53 1.225-.43 1.457.133.165.43.231-.067a2 2 0 0 0 .033-.397m-.33 1.225q.065-.165 0-.166-.067-.033-.332.1-.495.198-.695.297-.165.067-.43.298a4.2 4.2 0 0 0-.629.63l-.695.76-.033.63q0 .463.033.595.033.099.199.199.198.099.298.066.099-.066.496-.464.861-.728 1.787-2.945m2.482 5.328q.099.266-.43.729-.53.43-.762.364-.132 0-.397.132a2.8 2.8 0 0 0-.596.331q-.33.199-.596.397-.23.166-.562.397l-.331.232q-.397.398-1.159.86-.728.464-1.092.795a4.3 4.3 0 0 1-.662.463 2.5 2.5 0 0 0-.562.464q-.331.198-1.126.629a21 21 0 0 0-1.621 1.026q-.695.463-.861.463-.231 0-.463-.199-.2-.232-.199-.43-.066-.364.728-.894.794-.562 1.953-1.158 1.191-.63 1.556-.96.694-.53 1.456-1.092.795-.595 1.224-.894.465-.298 1.556-.993l1.39-.926q.696-.464 1.125-.364.43.066.43.629m-3.542 3.641q.33 0 .397.497.1.463.133 2.35 0 .264-.1 1.092-.132 1.026 0 1.158.134.133.729-.53.264-.33.993-1.025.728-.729 1.059-1.192.231-.364.397-.496.198-.165.397-.464.562-.728.96-.629.862.233-.464 1.82-1.29 1.59-3.508 3.906-1.026 1.026-1.555.86-.397-.165-.497-.462-.066-.331.066-1.126.265-1.688.331-3.905.066-1.49.232-1.655a.53.53 0 0 1 .43-.199m-1.688 9.201q.165-.033.728.199t.63.232q.86.165 2.316.794 1.456.63 1.986.794.63.199 1.953.828 1.357.596 2.217.86.233.066.795.232.563.198.926.298.364.132.96.198.63.1 1.258.1.761.033 1.026.165.264.165.265.53 0 .76-1.093.76-.76 0-2.912-.562-2.118-.563-2.714-.86-.695-.398-2.185-.927-1.49-.53-2.019-.794a14 14 0 0 0-1.687-.695 37 37 0 0 0-2.383-.795 48 48 0 0 1-1.854-.629q-.166-.066-.927-.198-.728-.132-.926-.232-.299-.231-.563.066a5.6 5.6 0 0 0-.496.795q-.232.496-.398.596a16 16 0 0 1-1.158 1.522q-.729.828-1.158 1.125-.233.132-.63.53a6 6 0 0 1-1.059.761q-.629.397-.893.397-.728.034-.563-.662.132-.629.563-.794a.4.4 0 0 1 .231 0q.332-.033.497-.165.364-.232 1.423-1.324 1.093-1.093 1.258-1.39a4.4 4.4 0 0 1 .43-.63q1.06-1.522 2.416-4.93.2-.663.828-.497.463.033.562.165.1.1-.099.43-.199.165-.364.53-.132.33-.298.827-.165.464-.265.695-.264.63-.198.662.1.034.86.199.796.165 1.258.33.497.135.794.299.398.165.662.165M39.64 55.026q.364 0 1.852-.629 1.49-.629 1.92-.992.033-.133.298-.166.299-.066.662-.033.364 0 .496-.066.1-.034 1.49-.232 1.423-.198 1.522-.265.332-.099 1.721-.033 1.425.034 1.721.166 2.55 1.192-.033 5.295-1.026 1.456-1.986 2.119a3.6 3.6 0 0 1-2.085.662q-.43 0-.595-.067-.166-.066-.133-.231 0-.166.331-.298.33-.133.762-.265.43-.132.562-.232.562-.33 1.258-1.059.695-.761 1.059-1.423.464-.563.728-1.688.265-1.06-.066-1.39-.33-.364-1.721-.463-.497-.067-1.622.099-1.125.132-2.019.33-.894.199-.894.266-.198.33-.165 1.059t.132 1.886q.133 1.125.1 1.39 0 2.052-.497 5.13-.165 1.06-.397 1.258-.33.298-.629.166-.265-.165-.33-.53a1.24 1.24 0 0 1 .065-.695q.464-1.125.53-4.303.1-3.177-.298-4.468-.066-.298-.43-.264-.33.032-.629.198-.298.133-.728.331-.398.198-.596.232-.266.099-.33.198-.034.1.098.364.1.232-.132 1.225-.397 1.687-.199 2.085.232.365.067.728a.6.6 0 0 1-.464.397q-.297.034-.596-.297l-.397-.364.133-1.39q.033-.564.099-1.225.1-.696.1-.96-.067-.166-.563.033-.464.198-1.258.596-.762.363-.993.463-.496.165-1.39.662t-1.125.728q-.133.165-.331.298l-.298.199q-.066.033-.033.264.033.199.231.596.43.795-.033 1.093-.363.231-.695-.067-.33-.33-.728-1.357-.033-.065-.232-.53l-.297-.694a4.5 4.5 0 0 0-.331-.596 5 5 0 0 0-.398-.629q-.463-.364-.198-.827.264-.465.728-.563.596 0 .86 1.092.067.33.298.695.232.365.298.53l.133.298a2.6 2.6 0 0 0 .198-.53q.099-.297.166-.364.066-.099.297-.232.266-.165.861-.463.563-.298.993-.463t.596-.199q.198-.066.53-.33.33-.265.86-.828.596-.597 1.158-1.225a48 48 0 0 0 .828-.993q.297-.33.96-1.258.695-.926.926-1.224.761-.96.63-1.192-.068-.132-1.49.166-1.854.396-4.468.596a.5.5 0 0 1-.166-.232 8 8 0 0 1-.066-.397q-.033-.265-.066-.298-.068-.364.165-.43.232-.067 1.423-.034 1.06.1 2.45-.198 1.389-.33 2.052-.397.43 0 .76-.066.333-.1.365-.1.066 0 .43.166.2.198.133.695-.1.53-.43 1.125a9 9 0 0 1-.497.894q-.199.298-.761.993-.564.661-.662.76-.597.795-1.093 1.325-.66.86-.463.893m166.867 34.718q-.2.882-.2 1.31v.086q-.256 2.734-2.022 6.324-.37.826-.656 1.197-.285.37-.883.826-.712.513-1.111.513-.285 0-.798-.2-.626-.255-.769-.37-.114-.114-.313-.513-.143-.284-.143-.484 0-.17.228-.17.2 0 .656.227.455.228.683.228.257 0 .798-.228.484-.228.855-.684.37-.427.513-.797.17-.342.427-1.026.228-.656.37-.997.171-.371.228-.541t.2-.656q.114-.484.228-.826.142-.456.199-1.339.085-.912.228-1.396.142-.627.142-.855 0-.285-.256-.285-.228 0-.826.798-.399.541-.741.798-.313.256-.826.399a1.2 1.2 0 0 1-.314.057q-.143 0-.399-.114a1.7 1.7 0 0 1-.683-.57q-.257-.37-.513-1.282-.627-2.023-.627-3.077 0-.997.456-.997.399 0 .712 1.339 0 .456.57 2.08.228.626.285.854.114.542.456.542a.55.55 0 0 0 .285-.086q.683-.513 1.738-2.421 1.053-1.91 1.225-3.078 0-.227.228-.398a.83.83 0 0 1 .512-.171q.342 0 .542.228a.77.77 0 0 1 .228.57q0 .227-.143.655a23 23 0 0 0-.399 1.738q-.171.996-.171 1.481 0 .4-.199 1.31m-9.231 3.22a.5.5 0 0 1-.143.029q-.484 0-1.225-2.052a4.5 4.5 0 0 0-.484-.826 5.7 5.7 0 0 1-.456-.883q-.427-.94-.684-.94-.171 0-.513.54a9 9 0 0 1-.313.428q-1.111 1.68-2.222 2.28-.627.34-1.197.341-1.026 0-1.253-.854a3.5 3.5 0 0 1-.086-.798q0-1.31.855-3.248.2-.484.456-.798.257-.313.854-.911.94-.912 1.226-1.083.284-.171 1.082-.342h.057q.114 0 .285.086.17.057.313.142.171.086.371.257.228.142.342.256.143.085.342.256.198.143.227.171a.8.8 0 0 1 .257.342q.057.172.085.883.057.741.143 1.026t.541 1.168a20 20 0 0 1 1.225 2.906q.285.826.285 1.111a.5.5 0 0 1-.142.37.5.5 0 0 1-.228.143m-7.379-2.991q0 .54.456.54.513 0 1.567-1.11a9.9 9.9 0 0 0 1.823-2.564q.285-.485.285-.883 0-.827-.912-.94-.399 0-.684.17-.256.172-.883.855-1.282 1.34-1.51 2.877-.142.798-.142 1.055m-4.53-8.861q0-.54.314-.541.228 0 .512.342.313.342.513.712.086.37.086.798 0 .598-.228 1.68a39 39 0 0 0-.257 1.454q-.085.826-.256 1.339a22 22 0 0 0-.199.57 18.4 18.4 0 0 1-.912 2.592q-.541 1.311-1.054 2.051-.485.712-1.083.712-.769 0-1.367-1.253a70 70 0 0 1-.741-1.795q-.598-1.482-.997-2.137a16 16 0 0 1-.513-.997 5 5 0 0 0-.456-.912q-.285-.284-.37-.284-.114 0-.285.228-.172.198-.484.826-.314.598-.513 1.025-.2.428-.713 1.51-.94 2.024-1.253 2.507-.285.485-.541.485t-.599-.342q-.228-.256-.228-.94 0-.485.086-1.453.085-.998.085-1.31 0-.57-.114-1.967a39 39 0 0 1-.085-1.965q0-.827.142-1.055a.45.45 0 0 1 .399-.227.54.54 0 0 1 .428.199q.113.142.256 1.396.142 1.253.142 2.28 0 .312-.028.569v.37q0 .656.228.656.285 0 .684-.94.313-.799 1.054-1.966.598-.97.883-1.282.285-.342.57-.342h.028a1 1 0 0 0 .2.028q.313.114.655.57.37.427.57.826t.513 1.083q.256.54.37.77.485 1.025.969 2.478.34 1.054.512 1.453.2.399.399.399.114 0 .143-.086.655-.854 1.282-2.336.627-1.51.797-2.85.029-.198.314-1.623t.285-2.108q0-.314-.086-.656a3.5 3.5 0 0 1-.057-.54m-20.855 8.632v.284q0 .427.114 1.026.114.57.256.826.171.256.171.456 0 .257-.199.37a.7.7 0 0 1-.314.086q-.37 0-.712-.484a3 3 0 0 1-.313-.513q-.057-.228-.086-.997-.085-1.282-.256-1.624-.171-.228-.171-.428 0-.227.228-.626.228-.428.256-.627.143-1.14.456-2.564.343-1.454.427-2.25.029-.343.2-.913.17-.57.199-.883.029-.399.2-.627.2-.256.456-.256l.228.057q.284.342.284.57 0 .085-.085.456a8 8 0 0 0-.085.74q-.086 1.054-.485 2.935-.37 1.851-.37 2.194 0 .341.285.341.057 0 .171-.028.256-.085 1.282-1.14 1.053-1.082 1.481-1.652.427-.655.655-.77a.66.66 0 0 1 .371-.113q.256 0 .427.17.2.144.2.343 0 .114-.2.37-.2.255-.484.57-.257.314-.371.513-.683 1.082-1.623 1.68a3.6 3.6 0 0 0-.656.57q-.285.314-.285.513 0 .285.855.342.94.114 3.105 1.225.97.484 1.226.684.255.17.256.37 0 .484-.684.484-.285 0-1.538-.427-1.254-.456-1.738-.74-.172-.086-.883-.229-.713-.142-.884-.256a1.9 1.9 0 0 0-.911-.228.7.7 0 0 0-.314.057q-.114.057-.142.143m-7.834-1.283.057.057h.028q.143-.17.542-.712.399-.54.712-.855.228-.198.684-.683.484-.513.883-.883a4.4 4.4 0 0 1 .712-.599q.314-.17.428-.17t.284.113q.171.114.171.228 0 .2-.427.684-.4.485-1.766 1.88-.399.399-1.368 1.795t-1.111 1.539q-.142.141-.541.883-.399.712-.456.826-.172.2-.484.2-.513 0-.513-.4 0-.312.342-.968.569-.94.569-2.764 0-2.393-.256-2.792a.7.7 0 0 1-.228-.513q0-.17.143-.313a.46.46 0 0 1 .341-.142q.485 0 .827.769.341.77.341 1.766 0 .2-.028.37v.228q0 .143.028.285zm-5.527-2.934q1.083.627 1.082 1.538 0 .342-.227.912-.541 1.396-1.995 2.564-1.453 1.168-2.592 1.168-.94 0-1.425-.854-.484-.855-.484-1.966 0-1.368.712-2.25.741-.884 2.108-1.596a1.8 1.8 0 0 1 .741-.143q1.026 0 2.08.627m-.712 2.906q.626-.798.626-1.14 0-.398-.655-.826-.513-.313-1.253-.313-.456 0-.741.142a4 4 0 0 1-.399.171q-.314.143-.456.314-.142.142-.427.74-.428.884-.428 1.197 0 .256.171.855.256.854.741.854.2 0 .541-.142 1.254-.513 2.28-1.852m-8.262-7.322q0-.54.313-.541.228 0 .513.342.313.342.513.712.085.37.085.798 0 .598-.228 1.68a39 39 0 0 0-.256 1.454q-.085.826-.256 1.339-.114.313-.2.57a18.4 18.4 0 0 1-.912 2.592q-.54 1.311-1.054 2.051-.484.712-1.082.712-.77 0-1.368-1.253a70 70 0 0 1-.741-1.795q-.597-1.482-.997-2.137a16 16 0 0 1-.512-.997 5 5 0 0 0-.456-.912q-.285-.284-.371-.284-.114 0-.285.228-.17.198-.484.826-.314.598-.513 1.025-.2.428-.712 1.51-.94 2.024-1.254 2.507-.284.485-.541.485-.256 0-.598-.342-.228-.256-.228-.94 0-.485.085-1.453.086-.998.086-1.31 0-.57-.114-1.967a39 39 0 0 1-.086-1.965q0-.827.143-1.055a.45.45 0 0 1 .399-.227q.256 0 .427.199.114.142.257 1.396.142 1.253.142 2.28 0 .312-.029.569v.37q0 .656.228.656.285 0 .684-.94.313-.799 1.054-1.966.599-.97.883-1.282.285-.342.57-.342h.029a.8.8 0 0 0 .199.028q.314.114.655.57.37.427.57.826t.513 1.083q.256.54.37.77.484 1.025.969 2.478.342 1.054.513 1.453.2.399.399.399.114 0 .142-.086.655-.854 1.282-2.336.627-1.51.798-2.85.028-.198.313-1.623t.285-2.108a2.7 2.7 0 0 0-.085-.656 3.5 3.5 0 0 1-.057-.54m-25.869 8.247q0 .399-.2.484-.2.114-1.282.143-1.196.028-1.652.142-1.254.343-1.71.37-.427.057-1.937.086a86 86 0 0 1-3.162 0q-1.112-.028-1.368-.085a26 26 0 0 0-.997-.086 42 42 0 0 0-2.08-.085q-1.48-.03-1.766-.057a.76.76 0 0 1-.4-.143q-.17-.171-.17-.285 0-.085.029-.114.028-.029.313-.228.37-.256.997-.313.656-.057 2.222.028 3.647.172 6.98.143 1.026.057 2.194-.228 1.169-.285 1.88-.313 1.568-.086 1.824 0 .285.057.285.54" fill="#FCFCFD"/></svg>